<?xml version="1.0" encoding="UTF-8"?>
<!DOCTYPE svg PUBLIC "-//W3C//DTD SVG 1.1//EN" "http://www.w3.org/Graphics/SVG/1.1/DTD/svg11.dtd">
<svg xmlns="http://www.w3.org/2000/svg" version="1.1" width="512px" height="512px" style="shape-rendering:geometricPrecision; text-rendering:geometricPrecision; image-rendering:optimizeQuality; fill-rule:evenodd; clip-rule:evenodd" xmlns:xlink="http://www.w3.org/1999/xlink">
<g><path style="opacity:0.994" fill="#806667" d="M 308.5,342.5 C 279.867,344.408 251.2,344.908 222.5,344C 209.74,343.091 197.073,341.591 184.5,339.5C 148.127,334.895 116.627,320.229 90,295.5C 70.7008,272.11 61.2008,245.11 61.5,214.5C 61.9269,204.749 62.9269,195.082 64.5,185.5C 53.4232,159.53 45.9232,132.53 42,104.5C 38.6328,84.562 37.6328,64.562 39,44.5C 39.4442,40.4345 41.2775,37.2678 44.5,35C 53.0895,33.4238 61.7562,33.0905 70.5,34C 95.9315,37.9863 120.932,43.8196 145.5,51.5C 164.176,38.4968 184.51,28.6634 206.5,22C 254.121,9.47626 299.455,15.1429 342.5,39C 349.725,43.7351 357.058,48.2351 364.5,52.5C 390.053,44.4451 416.053,38.2785 442.5,34C 450.167,33.3333 457.833,33.3333 465.5,34C 470.79,34.9575 473.624,38.1242 474,43.5C 475.87,89.9506 468.536,134.951 452,178.5C 445.271,189.414 443.438,201.247 446.5,214C 446.678,267.459 422.344,304.792 373.5,326C 352.498,334.167 330.832,339.667 308.5,342.5 Z"/></g>
<g><path style="opacity:1" fill="#fdcdd1" d="M 78.5,66.5 C 84.8979,66.2427 91.2312,66.7427 97.5,68C 105.231,70.4659 112.897,73.1326 120.5,76C 103.85,93.3169 90.3503,112.817 80,134.5C 76.8559,118.973 75.0226,103.306 74.5,87.5C 74.6667,82.1667 74.8333,76.8333 75,71.5C 75.9973,69.6769 77.1639,68.0103 78.5,66.5 Z"/></g>
<g><path style="opacity:1" fill="#fccdd1" d="M 419.5,66.5 C 424.511,66.3341 429.511,66.5007 434.5,67C 437.473,69.4477 438.973,72.6144 439,76.5C 439.513,98.2438 436.846,119.577 431,140.5C 420.537,117.06 406.704,95.8933 389.5,77C 399.432,72.9689 409.432,69.4689 419.5,66.5 Z"/></g>
<g><path style="opacity:1" fill="#fefefe" d="M 162.5,121.5 C 194.483,119.222 215.317,133.222 225,163.5C 228.856,191.291 218.356,211.458 193.5,224C 166.216,233.459 144.05,226.626 127,203.5C 112.77,175.358 117.603,151.191 141.5,131C 148.095,126.698 155.095,123.531 162.5,121.5 Z"/></g>
<g><path style="opacity:1" fill="#fefefe" d="M 318.5,121.5 C 351.781,119.532 372.614,134.532 381,166.5C 383.078,197.194 369.578,217.361 340.5,227C 305.011,231.505 283.177,216.338 275,181.5C 274.106,150.272 288.606,130.272 318.5,121.5 Z"/></g>
<g><path style="opacity:1" fill="#f9cace" d="M 250.5,213.5 C 255.382,213.193 260.049,214.026 264.5,216C 268.687,220.46 268.02,224.127 262.5,227C 256.967,229.306 251.633,228.973 246.5,226C 243.455,223.552 242.955,220.719 245,217.5C 246.812,216.023 248.645,214.69 250.5,213.5 Z"/></g>
<g><path style="opacity:1" fill="#fdcdd1" d="M 106.5,228.5 C 117.653,227.04 127.986,229.207 137.5,235C 145.99,244.074 144.99,252.074 134.5,259C 120.435,265.532 106.769,264.866 93.5,257C 85.221,248.992 85.5544,241.325 94.5,234C 98.4813,231.838 102.481,230.005 106.5,228.5 Z"/></g>
<g><path style="opacity:1" fill="#fdcdd1" d="M 388.5,228.5 C 399.137,227.14 409.137,228.974 418.5,234C 429.172,245.524 427.172,254.524 412.5,261C 400.335,265.193 388.669,264.193 377.5,258C 369.42,251.613 368.42,244.279 374.5,236C 378.815,232.678 383.482,230.178 388.5,228.5 Z"/></g>
<g><path style="opacity:1" fill="#fdced2" d="M 249.5,252.5 C 270.954,250.504 286.12,259.17 295,278.5C 295.839,283.921 295.506,289.254 294,294.5C 291.065,299.66 286.565,302.326 280.5,302.5C 273.123,300.576 265.623,299.576 258,299.5C 248.563,301.062 239.063,301.562 229.5,301C 218.058,298.295 213.558,291.128 216,279.5C 218.531,271.263 223.365,264.763 230.5,260C 236.604,256.583 242.937,254.083 249.5,252.5 Z"/></g>
<g><path style="opacity:0.979" fill="#7f6566" d="M 340.5,435.5 C 337.733,417.101 333.4,399.101 327.5,381.5C 330.867,374.619 334.534,367.786 338.5,361C 338.833,360.833 339.167,360.667 339.5,360.5C 340.321,363.447 340.821,366.447 341,369.5C 349.782,357.816 359.615,346.982 370.5,337C 371.793,336.51 373.127,336.343 374.5,336.5C 374.434,340.559 374.267,344.559 374,348.5C 388.018,338.071 403.184,329.571 419.5,323C 431.763,319.263 435.93,323.43 432,335.5C 444.195,327.819 457.028,321.319 470.5,316C 472.833,315.333 475.167,315.333 477.5,316C 478.276,317.77 478.11,319.603 477,321.5C 467.686,336.155 456.852,349.655 444.5,362C 449.874,361.003 455.208,361.336 460.5,363C 462.396,364.808 462.896,366.975 462,369.5C 458.786,374.382 454.619,378.215 449.5,381C 436.645,387.508 423.311,392.841 409.5,397C 414.749,401.638 415.415,406.638 411.5,412C 398.746,415.818 385.746,418.484 372.5,420C 376.427,426.622 374.76,430.956 367.5,433C 358.551,434.404 349.551,435.238 340.5,435.5 Z"/></g>
<g><path style="opacity:0.994" fill="#634f54" d="M 184.5,339.5 C 197.073,341.591 209.74,343.091 222.5,344C 251.2,344.908 279.867,344.408 308.5,342.5C 317.217,354.268 323.55,367.268 327.5,381.5C 333.4,399.101 337.733,417.101 340.5,435.5C 347.772,474.396 332.105,489.896 293.5,482C 281.69,478.426 270.357,473.76 259.5,468C 252.167,466 244.833,466 237.5,468C 225.219,471.538 212.886,474.872 200.5,478C 187.721,480.253 176.888,476.753 168,467.5C 165.545,463.469 163.879,459.136 163,454.5C 161.309,428.665 164.809,403.665 173.5,379.5C 170.31,404.146 181.143,417.146 206,418.5C 229.214,417.613 242.714,405.78 246.5,383C 245.273,366.768 236.606,357.101 220.5,354C 199.253,351.622 183.586,359.789 173.5,378.5C 176.797,365.775 180.797,353.275 185.5,341C 184.944,340.617 184.611,340.117 184.5,339.5 Z"/></g>
<g><path style="opacity:1" fill="#7f6566" d="M 173.5,379.5 C 173.5,379.167 173.5,378.833 173.5,378.5C 183.586,359.789 199.253,351.622 220.5,354C 236.606,357.101 245.273,366.768 246.5,383C 242.714,405.78 229.214,417.613 206,418.5C 181.143,417.146 170.31,404.146 173.5,379.5 Z"/></g>
<g><path style="opacity:1" fill="#7f6566" d="M 277.5,353.5 C 295.599,351.141 310.099,357.141 321,371.5C 330.244,387.555 327.744,401.388 313.5,413C 292.053,423.244 273.553,419.411 258,401.5C 246.579,378.027 253.079,362.027 277.5,353.5 Z"/></g>
</svg>
