<?xml version="1.0" encoding="UTF-8"?>
<!DOCTYPE svg PUBLIC "-//W3C//DTD SVG 1.1//EN" "http://www.w3.org/Graphics/SVG/1.1/DTD/svg11.dtd">
<svg xmlns="http://www.w3.org/2000/svg" version="1.1" width="512px" height="512px" style="shape-rendering:geometricPrecision; text-rendering:geometricPrecision; image-rendering:optimizeQuality; fill-rule:evenodd; clip-rule:evenodd" xmlns:xlink="http://www.w3.org/1999/xlink">
<g><path style="opacity:0.998" fill="#c1c8c8" d="M 315.5,41.5 C 297.056,95.3283 289.223,150.662 292,207.5C 296.284,240.714 315.117,256.714 348.5,255.5C 348.263,254.209 348.596,253.209 349.5,252.5C 348.732,258.798 351.065,263.631 356.5,267C 369.297,273.985 382.297,274.319 395.5,268C 406.618,260.238 407.285,251.738 397.5,242.5C 414.578,235.462 430.912,227.128 446.5,217.5C 449.949,252.971 440.449,284.304 418,311.5C 412.96,316.044 407.794,320.378 402.5,324.5C 390.943,332.945 378.276,339.279 364.5,343.5C 362.214,329.045 353.881,320.212 339.5,317C 315.162,314.409 298.995,324.575 291,347.5C 290.238,351.587 290.404,355.587 291.5,359.5C 265.774,361.154 240.107,360.821 214.5,358.5C 217.178,343.025 211.844,331.192 198.5,323C 179.01,312.355 161.51,314.855 146,330.5C 143.471,334.284 141.638,338.284 140.5,342.5C 127.582,337.71 115.582,331.377 104.5,323.5C 80.013,304.207 66.1797,278.874 63,247.5C 62.5002,237.506 62.3335,227.506 62.5,217.5C 77.7293,226.282 93.396,234.282 109.5,241.5C 101.371,249.602 101.704,257.435 110.5,265C 123.611,271.975 136.944,272.308 150.5,266C 156.498,262.514 159.165,257.348 158.5,250.5C 159.451,251.919 159.784,253.585 159.5,255.5C 195.397,256.776 214.897,239.442 218,203.5C 219.36,158.459 214.36,114.125 203,70.5C 200.124,60.7063 196.957,51.0396 193.5,41.5C 234.167,26.8333 274.833,26.8333 315.5,41.5 Z"/></g>
<g><path style="opacity:0.998" fill="#8e9597" d="M 315.5,41.5 C 333.108,48.0507 349.275,57.0507 364,68.5C 387.974,60.3814 412.474,54.2147 437.5,50C 446.464,48.6159 455.464,48.2826 464.5,49C 467.458,49.2293 469.958,50.396 472,52.5C 474.735,60.0766 475.901,67.91 475.5,76C 473.991,117.544 465.825,157.711 451,196.5C 449.287,200.095 447.453,203.595 445.5,207C 446.382,210.441 446.716,213.941 446.5,217.5C 430.912,227.128 414.578,235.462 397.5,242.5C 388.04,237.802 378.04,236.302 367.5,238C 360.044,239.472 354.21,243.305 350,249.5C 349.517,250.448 349.351,251.448 349.5,252.5C 348.596,253.209 348.263,254.209 348.5,255.5C 315.117,256.714 296.284,240.714 292,207.5C 289.223,150.662 297.056,95.3283 315.5,41.5 Z"/></g>
<g><path style="opacity:1" fill="#8e9597" d="M 193.5,41.5 C 196.957,51.0396 200.124,60.7063 203,70.5C 214.36,114.125 219.36,158.459 218,203.5C 214.897,239.442 195.397,256.776 159.5,255.5C 159.784,253.585 159.451,251.919 158.5,250.5C 157.874,247.685 156.54,245.185 154.5,243C 139.731,233.691 124.731,233.191 109.5,241.5C 93.396,234.282 77.7293,226.282 62.5,217.5C 62.7557,211.788 63.4224,206.121 64.5,200.5C 44.5297,153.348 36.6963,104.348 41,53.5C 43.194,50.8194 46.0273,49.3194 49.5,49C 65.7234,48.3168 81.7234,49.9835 97.5,54C 113.592,57.8563 129.592,62.0229 145.5,66.5C 152.744,62.8728 159.744,58.7061 166.5,54C 175.286,49.2721 184.286,45.1054 193.5,41.5 Z"/></g>
<g><path style="opacity:1" fill="#fdced2" d="M 79.5,81.5 C 93.6965,82.2988 107.363,85.4655 120.5,91C 104.244,108.097 90.9106,127.263 80.5,148.5C 75.5517,128.462 73.7183,108.129 75,87.5C 75.8041,84.8541 77.3041,82.8541 79.5,81.5 Z"/></g>
<g><path style="opacity:1" fill="#fdced2" d="M 422.5,81.5 C 426.936,81.2101 431.27,81.7101 435.5,83C 437.317,84.7998 438.484,86.9664 439,89.5C 439.742,112.156 437.409,134.489 432,156.5C 421.927,132.677 408.094,111.344 390.5,92.5C 400.839,87.61 411.506,83.9433 422.5,81.5 Z"/></g>
<g><path style="opacity:1" fill="#040404" d="M 163.5,193.5 C 174.277,191.816 183.944,194.316 192.5,201C 197.667,204.833 202.167,209.333 206,214.5C 209.894,222.855 207.394,226.355 198.5,225C 194.826,221.658 191.492,217.992 188.5,214C 179.421,205.744 169.421,204.41 158.5,210C 153.388,214.536 148.721,219.536 144.5,225C 137.718,226.875 134.552,224.375 135,217.5C 141.904,206.315 151.404,198.315 163.5,193.5 Z"/></g>
<g><path style="opacity:1" fill="#040404" d="M 329.5,193.5 C 350.045,192.605 365.045,201.271 374.5,219.5C 373.349,225.091 370.016,226.925 364.5,225C 346.387,200.43 328.387,200.43 310.5,225C 304.984,226.925 301.651,225.091 300.5,219.5C 307.049,207.281 316.715,198.614 329.5,193.5 Z"/></g>
<g><path style="opacity:1" fill="#feced2" d="M 158.5,250.5 C 159.165,257.348 156.498,262.514 150.5,266C 136.944,272.308 123.611,271.975 110.5,265C 101.704,257.435 101.371,249.602 109.5,241.5C 124.731,233.191 139.731,233.691 154.5,243C 156.54,245.185 157.874,247.685 158.5,250.5 Z"/></g>
<g><path style="opacity:1" fill="#feced2" d="M 397.5,242.5 C 407.285,251.738 406.618,260.238 395.5,268C 382.297,274.319 369.297,273.985 356.5,267C 351.065,263.631 348.732,258.798 349.5,252.5C 349.351,251.448 349.517,250.448 350,249.5C 354.21,243.305 360.044,239.472 367.5,238C 378.04,236.302 388.04,237.802 397.5,242.5 Z"/></g>
<g><path style="opacity:1" fill="#fcced2" d="M 250.5,238.5 C 256.203,237.9 261.036,239.567 265,243.5C 266.379,247.475 265.213,250.309 261.5,252C 255.967,254.306 250.633,253.973 245.5,251C 242.136,248.271 241.803,245.271 244.5,242C 246.432,240.541 248.432,239.375 250.5,238.5 Z"/></g>
<g><path style="opacity:1" fill="#090a0a" d="M 225.5,264.5 C 227.199,264.34 228.866,264.506 230.5,265C 234.966,272.513 241.3,274.513 249.5,271C 251.837,268.811 254.504,267.311 257.5,266.5C 258.5,266.667 259.5,266.833 260.5,267C 264.306,272.098 269.306,273.764 275.5,272C 279.1,269.952 282.6,267.786 286,265.5C 288.058,266.058 289.225,267.391 289.5,269.5C 286.568,275.15 281.902,278.65 275.5,280C 272.167,280.667 268.833,280.667 265.5,280C 262.572,278.62 259.738,277.12 257,275.5C 244.631,283.604 233.965,281.937 225,270.5C 224.322,268.402 224.489,266.402 225.5,264.5 Z"/></g>
<g><path style="opacity:1" fill="#8e9597" d="M 364.5,343.5 C 363.284,362.896 353.284,375.396 334.5,381C 320.289,384.881 307.956,381.715 297.5,371.5C 294.435,368.036 292.435,364.036 291.5,359.5C 290.404,355.587 290.238,351.587 291,347.5C 298.995,324.575 315.162,314.409 339.5,317C 353.881,320.212 362.214,329.045 364.5,343.5 Z"/></g>
<g><path style="opacity:1" fill="#8e9597" d="M 214.5,358.5 C 210.162,370.858 201.495,378.358 188.5,381C 171.952,383.707 158.119,378.874 147,366.5C 141.884,359.317 139.718,351.317 140.5,342.5C 141.638,338.284 143.471,334.284 146,330.5C 161.51,314.855 179.01,312.355 198.5,323C 211.844,331.192 217.178,343.025 214.5,358.5 Z"/></g>
<g><path style="opacity:0.995" fill="#f7b279" d="M 104.5,323.5 C 115.582,331.377 127.582,337.71 140.5,342.5C 139.718,351.317 141.884,359.317 147,366.5C 158.119,378.874 171.952,383.707 188.5,381C 201.495,378.358 210.162,370.858 214.5,358.5C 240.107,360.821 265.774,361.154 291.5,359.5C 292.435,364.036 294.435,368.036 297.5,371.5C 307.956,381.715 320.289,384.881 334.5,381C 353.284,375.396 363.284,362.896 364.5,343.5C 378.276,339.279 390.943,332.945 402.5,324.5C 418.394,345.277 433.561,366.61 448,388.5C 450.106,396.736 446.939,401.569 438.5,403C 431.174,403.5 423.841,403.666 416.5,403.5C 387.833,403.5 359.167,403.5 330.5,403.5C 332.365,390.199 326.698,384.366 313.5,386C 307.388,390.131 304.388,395.964 304.5,403.5C 282.5,403.5 260.5,403.5 238.5,403.5C 236.177,395.91 233.677,388.243 231,380.5C 227.547,377.231 223.714,376.731 219.5,379C 217.556,380.722 216.556,382.889 216.5,385.5C 217.843,391.512 219.177,397.512 220.5,403.5C 216.833,403.5 213.167,403.5 209.5,403.5C 204.468,399.23 199.801,399.563 195.5,404.5C 161.337,403.502 127.004,403.168 92.5,403.5C 81.1618,403.667 69.8284,403.5 58.5,403C 57.5838,402.626 56.7504,402.126 56,401.5C 55.3333,398.167 55.3333,394.833 56,391.5C 59.302,382.893 63.6353,374.893 69,367.5C 80.2879,352.38 92.1212,337.714 104.5,323.5 Z"/></g>
<g><path style="opacity:1" fill="#fdfcfb" d="M 238.5,403.5 C 242.688,420.234 247.188,436.901 252,453.5C 253.675,464.5 249.341,468.167 239,464.5C 235.927,455.95 233.261,447.283 231,438.5C 227.849,437.819 224.683,438.152 221.5,439.5C 221.167,440.333 220.833,441.167 220.5,442C 222.365,447.931 224.032,453.931 225.5,460C 223.308,467.385 218.641,469.385 211.5,466C 205.249,448.096 199.749,429.93 195,411.5C 194.297,409.071 194.463,406.738 195.5,404.5C 199.801,399.563 204.468,399.23 209.5,403.5C 211.652,409.773 213.652,416.107 215.5,422.5C 216.167,422.833 216.833,423.167 217.5,423.5C 220.13,422.622 222.797,421.955 225.5,421.5C 224.746,415.141 223.08,409.141 220.5,403.5C 219.177,397.512 217.843,391.512 216.5,385.5C 216.556,382.889 217.556,380.722 219.5,379C 223.714,376.731 227.547,377.231 231,380.5C 233.677,388.243 236.177,395.91 238.5,403.5 Z"/></g>
<g><path style="opacity:1" fill="#fefcfb" d="M 247.5,378.5 C 257.534,377.393 262.034,381.726 261,391.5C 258.497,397.461 253.997,399.628 247.5,398C 242.365,394.945 240.532,390.445 242,384.5C 243.36,381.977 245.193,379.977 247.5,378.5 Z"/></g>
<g><path style="opacity:1" fill="#fefdfc" d="M 330.5,403.5 C 327.836,414.602 325.669,425.936 324,437.5C 319.743,445.03 313.576,447.197 305.5,444C 300.407,439.983 298.574,434.816 300,428.5C 301.663,420.185 303.163,411.851 304.5,403.5C 304.388,395.964 307.388,390.131 313.5,386C 326.698,384.366 332.365,390.199 330.5,403.5 Z"/></g>
<g><path style="opacity:0.988" fill="#a6683b" d="M 92.5,403.5 C 127.004,403.168 161.337,403.502 195.5,404.5C 194.463,406.738 194.297,409.071 195,411.5C 199.749,429.93 205.249,448.096 211.5,466C 218.641,469.385 223.308,467.385 225.5,460C 224.032,453.931 222.365,447.931 220.5,442C 220.833,441.167 221.167,440.333 221.5,439.5C 224.683,438.152 227.849,437.819 231,438.5C 233.261,447.283 235.927,455.95 239,464.5C 249.341,468.167 253.675,464.5 252,453.5C 247.188,436.901 242.688,420.234 238.5,403.5C 260.5,403.5 282.5,403.5 304.5,403.5C 303.163,411.851 301.663,420.185 300,428.5C 298.574,434.816 300.407,439.983 305.5,444C 313.576,447.197 319.743,445.03 324,437.5C 325.669,425.936 327.836,414.602 330.5,403.5C 359.167,403.5 387.833,403.5 416.5,403.5C 409.853,430.09 403.519,456.756 397.5,483.5C 302.167,483.5 206.833,483.5 111.5,483.5C 105.481,456.758 99.1478,430.091 92.5,403.5 Z"/></g>
<g><path style="opacity:1" fill="#a76a3e" d="M 209.5,403.5 C 213.167,403.5 216.833,403.5 220.5,403.5C 223.08,409.141 224.746,415.141 225.5,421.5C 222.797,421.955 220.13,422.622 217.5,423.5C 216.833,423.167 216.167,422.833 215.5,422.5C 213.652,416.107 211.652,409.773 209.5,403.5 Z"/></g>
<g><path style="opacity:1" fill="#fcfbf9" d="M 253.5,407.5 C 261.004,407.834 265.171,411.834 266,419.5C 268.562,428.249 270.729,437.083 272.5,446C 271.961,452.782 268.294,455.449 261.5,454C 259.274,452.773 257.774,450.939 257,448.5C 253.709,437.762 250.875,426.928 248.5,416C 248.542,414.033 249.042,412.199 250,410.5C 251.518,409.837 252.685,408.837 253.5,407.5 Z"/></g>
<g><path style="opacity:1" fill="#fcfbfa" d="M 302.5,450.5 C 313.217,450.365 317.384,455.365 315,465.5C 308.971,472.089 302.971,472.089 297,465.5C 295.087,458.97 296.92,453.97 302.5,450.5 Z"/></g>
</svg>
