<?xml version="1.0" encoding="UTF-8"?>
<!DOCTYPE svg PUBLIC "-//W3C//DTD SVG 1.1//EN" "http://www.w3.org/Graphics/SVG/1.1/DTD/svg11.dtd">
<svg xmlns="http://www.w3.org/2000/svg" version="1.1" width="512px" height="512px" style="shape-rendering:geometricPrecision; text-rendering:geometricPrecision; image-rendering:optimizeQuality; fill-rule:evenodd; clip-rule:evenodd" xmlns:xlink="http://www.w3.org/1999/xlink">
<g><path style="opacity:0.998" fill="#feb449" d="M 188.5,111.5 C 191.942,132.27 197.109,152.603 204,172.5C 206.053,176.292 209.219,177.458 213.5,176C 214.333,175.167 215.167,174.333 216,173.5C 217.002,150.749 216.169,128.082 213.5,105.5C 222.565,103.229 231.898,101.896 241.5,101.5C 242.053,130.015 244.553,158.348 249,186.5C 253,190.5 257,190.5 261,186.5C 265.509,158.354 268.009,130.021 268.5,101.5C 278.42,101.969 288.087,103.302 297.5,105.5C 294.407,120.701 293.073,136.201 293.5,152C 293.667,159.167 293.833,166.333 294,173.5C 296.559,176.349 299.726,177.183 303.5,176C 304.701,175.097 305.535,173.931 306,172.5C 312.891,152.603 318.058,132.27 321.5,111.5C 331.476,114.32 341.143,117.987 350.5,122.5C 381.003,99.4012 413.669,79.5679 448.5,63C 462.793,57.8978 472.626,62.3978 478,76.5C 487.642,126.507 480.809,174.173 457.5,219.5C 481.498,258.317 488.665,299.984 479,344.5C 477.316,350.391 475.149,356.057 472.5,361.5C 439.751,353.374 406.584,350.041 373,351.5C 372.383,352.449 372.549,353.282 373.5,354C 402.447,353.719 431.114,356.386 459.5,362C 463.34,362.959 467.007,364.125 470.5,365.5C 465.661,375.843 459.328,385.176 451.5,393.5C 425.908,380.303 398.908,371.303 370.5,366.5C 370.5,367.5 370.5,368.5 370.5,369.5C 397.723,374.351 423.39,383.351 447.5,396.5C 441.471,403.674 434.471,409.674 426.5,414.5C 416.738,406.775 406.738,399.275 396.5,392C 389.56,387.525 382.227,384.192 374.5,382C 373.167,383 373.167,384 374.5,385C 392.781,392.627 408.781,403.461 422.5,417.5C 385.576,439.417 345.576,452.251 302.5,456C 243.125,462.845 185.125,456.845 128.5,438C 114.439,432.802 101.106,426.302 88.5,418.5C 91.2669,413.898 94.9336,410.064 99.5,407C 110.709,397.891 123.042,390.557 136.5,385C 137.833,384 137.833,383 136.5,382C 128.773,384.192 121.44,387.525 114.5,392C 103.748,399.366 93.4146,407.199 83.5,415.5C 76.5251,409.529 69.5251,403.529 62.5,397.5C 86.6082,383.239 112.608,373.906 140.5,369.5C 140.5,368.5 140.5,367.5 140.5,366.5C 122.91,368.648 105.91,373.148 89.5,380C 79.1344,384.518 68.8011,389.018 58.5,393.5C 50.672,385.176 44.3387,375.843 39.5,365.5C 71.4365,356.759 104.103,352.926 137.5,354C 138.833,353 138.833,352 137.5,351C 103.64,349.633 70.3063,353.133 37.5,361.5C 26.8788,337.531 23.7121,312.531 28,286.5C 31.7792,264.162 38.9459,242.995 49.5,223C 33.5859,185.76 27.0859,146.927 30,106.5C 31.4212,91.0591 34.7545,76.0591 40,61.5C 47.5058,52.3321 56.6724,50.1655 67.5,55C 99.8365,74.6788 129.836,97.5122 157.5,123.5C 167.521,118.655 177.854,114.655 188.5,111.5 Z"/></g>
<g><path style="opacity:1" fill="#f9ded3" d="M 59.5,77.5 C 83.3574,98.1861 107.691,118.353 132.5,138C 106.537,154.958 84.0372,175.791 65,200.5C 46.6201,160.16 44.7867,119.16 59.5,77.5 Z"/></g>
<g><path style="opacity:1" fill="#f9ded3" d="M 456.5,81.5 C 457.75,81.5774 458.583,82.244 459,83.5C 471.092,124.518 466.426,163.518 445,200.5C 425.251,174.745 401.751,153.245 374.5,136C 402.414,118.554 429.748,100.388 456.5,81.5 Z"/></g>
<g><path style="opacity:1" fill="#dd730f" d="M 241.5,101.5 C 250.5,101.5 259.5,101.5 268.5,101.5C 268.009,130.021 265.509,158.354 261,186.5C 257,190.5 253,190.5 249,186.5C 244.553,158.348 242.053,130.015 241.5,101.5 Z"/></g>
<g><path style="opacity:1" fill="#dd7410" d="M 213.5,105.5 C 216.169,128.082 217.002,150.749 216,173.5C 215.167,174.333 214.333,175.167 213.5,176C 209.219,177.458 206.053,176.292 204,172.5C 197.109,152.603 191.942,132.27 188.5,111.5C 196.547,108.405 204.881,106.405 213.5,105.5 Z"/></g>
<g><path style="opacity:1" fill="#dd7410" d="M 297.5,105.5 C 305.758,106.564 313.758,108.564 321.5,111.5C 318.058,132.27 312.891,152.603 306,172.5C 305.535,173.931 304.701,175.097 303.5,176C 299.726,177.183 296.559,176.349 294,173.5C 293.833,166.333 293.667,159.167 293.5,152C 293.073,136.201 294.407,120.701 297.5,105.5 Z"/></g>
<g><path style="opacity:1" fill="#df7612" d="M 329.5,218.5 C 332.247,218.187 334.914,218.52 337.5,219.5C 330.536,223.652 323.536,227.819 316.5,232C 310.585,237.41 305.252,243.243 300.5,249.5C 299.488,247.163 299.655,244.83 301,242.5C 307.314,230.683 316.814,222.683 329.5,218.5 Z"/></g>
<g><path style="opacity:1" fill="#de7612" d="M 171.5,244.5 C 186.555,244.942 198.388,251.276 207,263.5C 209.072,266.971 210.572,270.638 211.5,274.5C 210.325,274.719 209.325,274.386 208.5,273.5C 199.503,260.681 187.503,251.847 172.5,247C 171.748,246.329 171.414,245.496 171.5,244.5 Z"/></g>
<g><path style="opacity:1" fill="#592204" d="M 420.5,263.5 C 410.509,262.945 400.509,262.612 390.5,262.5C 384.31,262.177 378.31,262.51 372.5,263.5C 354.88,265.148 339.213,271.481 325.5,282.5C 324.5,282.833 323.833,283.5 323.5,284.5C 320.833,286.5 318.5,288.833 316.5,291.5C 310.179,296.823 304.512,302.823 299.5,309.5C 298.325,309.719 297.325,309.386 296.5,308.5C 323.93,256.791 365.264,240.791 420.5,260.5C 421.776,261.614 421.776,262.614 420.5,263.5 Z"/></g>
<g><path style="opacity:1" fill="#582203" d="M 210.5,309.5 C 206.879,304.707 203.046,300.04 199,295.5C 197.549,293.536 195.716,292.203 193.5,291.5C 191.5,288.833 189.167,286.5 186.5,284.5C 186.167,283.5 185.5,282.833 184.5,282.5C 170.76,271.466 155.094,265.132 137.5,263.5C 131.69,262.51 125.69,262.177 119.5,262.5C 109.486,262.501 99.4862,262.834 89.5,263.5C 88.9033,263.265 88.5699,262.765 88.5,262C 121.596,245.909 153.263,248.576 183.5,270C 196.466,281.105 206.466,294.271 213.5,309.5C 212.5,309.5 211.5,309.5 210.5,309.5 Z"/></g>
<g><path style="opacity:1" fill="#fef8f6" d="M 119.5,262.5 C 109.622,282.489 112.622,300.323 128.5,316C 143.489,326.185 159.156,327.185 175.5,319C 185.334,312.334 191.334,303.168 193.5,291.5C 195.716,292.203 197.549,293.536 199,295.5C 203.046,300.04 206.879,304.707 210.5,309.5C 201.669,319.256 190.669,325.422 177.5,328C 133.739,337.53 105.239,321.03 92,278.5C 91.1645,273.487 90.3312,268.487 89.5,263.5C 99.4862,262.834 109.486,262.501 119.5,262.5 Z"/></g>
<g><path style="opacity:1" fill="#facd40" d="M 119.5,262.5 C 125.69,262.177 131.69,262.51 137.5,263.5C 126.751,271.02 122.584,281.354 125,294.5C 131.993,315.58 146.159,322.747 167.5,316C 176.765,311.233 182.432,303.733 184.5,293.5C 185.167,290.5 185.833,287.5 186.5,284.5C 189.167,286.5 191.5,288.833 193.5,291.5C 191.334,303.168 185.334,312.334 175.5,319C 159.156,327.185 143.489,326.185 128.5,316C 112.622,300.323 109.622,282.489 119.5,262.5 Z"/></g>
<g><path style="opacity:1" fill="#fbce41" d="M 372.5,263.5 C 378.31,262.51 384.31,262.177 390.5,262.5C 400.378,282.489 397.378,300.323 381.5,316C 366.454,326.114 350.788,327.114 334.5,319C 324.666,312.334 318.666,303.168 316.5,291.5C 318.5,288.833 320.833,286.5 323.5,284.5C 324.167,286.833 324.833,289.167 325.5,291.5C 330.186,312.519 343.186,321.019 364.5,317C 376.825,312.845 383.825,304.345 385.5,291.5C 393.44,284.425 393.44,277.259 385.5,270C 383.26,269.023 380.927,268.523 378.5,268.5C 377.109,266.11 375.109,264.443 372.5,263.5 Z"/></g>
<g><path style="opacity:1" fill="#fef8f6" d="M 390.5,262.5 C 400.509,262.612 410.509,262.945 420.5,263.5C 418.28,285.703 408.947,304.203 392.5,319C 377.054,329.442 360.054,333.109 341.5,330C 330.963,328.265 320.963,324.932 311.5,320C 306.714,317.38 302.714,313.88 299.5,309.5C 304.512,302.823 310.179,296.823 316.5,291.5C 318.666,303.168 324.666,312.334 334.5,319C 350.788,327.114 366.454,326.114 381.5,316C 397.378,300.323 400.378,282.489 390.5,262.5 Z"/></g>
<g><path style="opacity:1" fill="#1d0c02" d="M 137.5,263.5 C 155.094,265.132 170.76,271.466 184.5,282.5C 184.5,286.167 184.5,289.833 184.5,293.5C 182.432,303.733 176.765,311.233 167.5,316C 146.159,322.747 131.993,315.58 125,294.5C 122.584,281.354 126.751,271.02 137.5,263.5 Z"/></g>
<g><path style="opacity:1" fill="#1d0c03" d="M 372.5,263.5 C 375.109,264.443 377.109,266.11 378.5,268.5C 367.477,271.874 364.811,278.54 370.5,288.5C 374.771,292.612 379.771,293.612 385.5,291.5C 383.825,304.345 376.825,312.845 364.5,317C 343.186,321.019 330.186,312.519 325.5,291.5C 325.5,288.5 325.5,285.5 325.5,282.5C 339.213,271.481 354.88,265.148 372.5,263.5 Z"/></g>
<g><path style="opacity:1" fill="#fcf6f5" d="M 378.5,268.5 C 380.927,268.523 383.26,269.023 385.5,270C 393.44,277.259 393.44,284.425 385.5,291.5C 379.771,293.612 374.771,292.612 370.5,288.5C 364.811,278.54 367.477,271.874 378.5,268.5 Z"/></g>
<g><path style="opacity:1" fill="#f6f0f0" d="M 168.5,279.5 C 179.812,279.299 182.812,284.132 177.5,294C 167.898,297.069 163.732,293.569 165,283.5C 166.376,282.295 167.542,280.962 168.5,279.5 Z"/></g>
<g><path style="opacity:1" fill="#907020" d="M 184.5,282.5 C 185.5,282.833 186.167,283.5 186.5,284.5C 185.833,287.5 185.167,290.5 184.5,293.5C 184.5,289.833 184.5,286.167 184.5,282.5 Z"/></g>
<g><path style="opacity:1" fill="#906f20" d="M 325.5,282.5 C 325.5,285.5 325.5,288.5 325.5,291.5C 324.833,289.167 324.167,286.833 323.5,284.5C 323.833,283.5 324.5,282.833 325.5,282.5 Z"/></g>
<g><path style="opacity:1" fill="#582102" d="M 240.5,330.5 C 248.84,330.334 257.173,330.5 265.5,331C 269.272,331.406 272.939,332.239 276.5,333.5C 269.651,339.847 262.484,345.847 255,351.5C 248,345.833 241,340.167 234,334.5C 233.383,333.551 233.549,332.718 234.5,332C 236.708,331.809 238.708,331.309 240.5,330.5 Z"/></g>
<g><path style="opacity:1" fill="#5c2404" d="M 287.5,349.5 C 293.369,349.048 299.035,349.881 304.5,352C 306.976,353.309 308.976,355.142 310.5,357.5C 310,357.833 309.5,358.167 309,358.5C 306.042,356.767 302.875,355.767 299.5,355.5C 294.605,372.213 283.605,378.713 266.5,375C 264.63,373.634 262.63,372.467 260.5,371.5C 252.348,382.939 242.014,385.439 229.5,379C 226.059,376.232 223.393,372.899 221.5,369C 221.763,367.054 222.763,366.388 224.5,367C 230.655,375.419 238.655,378.086 248.5,375C 252.618,372.527 256.451,369.694 260,366.5C 275.858,373.674 288.024,369.507 296.5,354C 292.963,353.855 289.629,353.022 286.5,351.5C 286.863,350.817 287.196,350.15 287.5,349.5 Z"/></g>
<g><path style="opacity:0.935" fill="#251407" d="M 39.5,365.5 C 25.9074,369.031 12.5741,373.364 -0.5,378.5C -0.5,376.833 -0.5,375.167 -0.5,373.5C 11.8345,368.5 24.5012,364.5 37.5,361.5C 70.3063,353.133 103.64,349.633 137.5,351C 138.833,352 138.833,353 137.5,354C 104.103,352.926 71.4365,356.759 39.5,365.5 Z"/></g>
<g><path style="opacity:0.93" fill="#241306" d="M 472.5,361.5 C 485.883,364.295 498.883,368.295 511.5,373.5C 511.5,375.167 511.5,376.833 511.5,378.5C 498.167,373.167 484.5,368.834 470.5,365.5C 467.007,364.125 463.34,362.959 459.5,362C 431.114,356.386 402.447,353.719 373.5,354C 372.549,353.282 372.383,352.449 373,351.5C 406.584,350.041 439.751,353.374 472.5,361.5 Z"/></g>
<g><path style="opacity:0.924" fill="#211105" d="M 62.5,397.5 C 50.8567,403.32 39.8567,410.154 29.5,418C 25.1763,418.045 24.5096,416.379 27.5,413C 37.5605,405.975 47.8939,399.475 58.5,393.5C 68.8011,389.018 79.1344,384.518 89.5,380C 105.91,373.148 122.91,368.648 140.5,366.5C 140.5,367.5 140.5,368.5 140.5,369.5C 112.608,373.906 86.6082,383.239 62.5,397.5 Z"/></g>
<g><path style="opacity:0.919" fill="#211105" d="M 451.5,393.5 C 463.821,399.682 475.155,407.182 485.5,416C 484.941,418.188 483.607,418.854 481.5,418C 470.645,410.073 459.312,402.906 447.5,396.5C 423.39,383.351 397.723,374.351 370.5,369.5C 370.5,368.5 370.5,367.5 370.5,366.5C 398.908,371.303 425.908,380.303 451.5,393.5 Z"/></g>
<g><path style="opacity:0.908" fill="#211105" d="M 88.5,418.5 C 79.755,425.743 72.255,434.077 66,443.5C 62.2448,447.788 60.5781,447.121 61,441.5C 67.5887,432.076 75.0887,423.409 83.5,415.5C 93.4146,407.199 103.748,399.366 114.5,392C 121.44,387.525 128.773,384.192 136.5,382C 137.833,383 137.833,384 136.5,385C 123.042,390.557 110.709,397.891 99.5,407C 94.9336,410.064 91.2669,413.898 88.5,418.5 Z"/></g>
<g><path style="opacity:0.912" fill="#211105" d="M 426.5,414.5 C 434.2,422.033 441.367,430.033 448,438.5C 450.346,440.706 450.846,443.206 449.5,446C 447.613,446.163 446.113,445.329 445,443.5C 438.411,434.076 430.911,425.409 422.5,417.5C 408.781,403.461 392.781,392.627 374.5,385C 373.167,384 373.167,383 374.5,382C 382.227,384.192 389.56,387.525 396.5,392C 406.738,399.275 416.738,406.775 426.5,414.5 Z"/></g>
</svg>
