<?xml version="1.0" encoding="UTF-8"?>
<!DOCTYPE svg PUBLIC "-//W3C//DTD SVG 1.1//EN" "http://www.w3.org/Graphics/SVG/1.1/DTD/svg11.dtd">
<svg xmlns="http://www.w3.org/2000/svg" version="1.1" width="512px" height="512px" style="shape-rendering:geometricPrecision; text-rendering:geometricPrecision; image-rendering:optimizeQuality; fill-rule:evenodd; clip-rule:evenodd" xmlns:xlink="http://www.w3.org/1999/xlink">
<g><path style="opacity:0.995" fill="#806667" d="M 430.5,130.5 C 428.225,121.358 423.558,113.525 416.5,107C 411.674,105.052 406.674,103.885 401.5,103.5C 400.942,102.21 399.942,101.377 398.5,101C 385.793,100.676 373.793,103.51 362.5,109.5C 367.553,115.544 372.553,121.544 377.5,127.5C 369.511,136.654 360.177,144.154 349.5,150C 333.369,162.097 325.702,178.264 326.5,198.5C 311.83,198.333 297.163,198.5 282.5,199C 279.833,201 279.833,203 282.5,205C 286.152,205.499 289.818,205.665 293.5,205.5C 290.55,212.604 292.717,216.937 300,218.5C 308.029,217.108 310.196,212.775 306.5,205.5C 313.5,205.5 320.5,205.5 327.5,205.5C 328.341,212.206 329.507,218.873 331,225.5C 332.537,233.736 331.204,241.403 327,248.5C 319,256.5 311,264.5 303,272.5C 296.182,280.467 291.182,289.467 288,299.5C 287.833,302.5 287.667,305.5 287.5,308.5C 288.168,316.505 288.834,324.505 289.5,332.5C 266.13,333.585 242.797,333.585 219.5,332.5C 224.815,310.37 220.315,290.704 206,273.5C 197.97,265.136 189.637,257.136 181,249.5C 176.842,243.873 175.009,237.54 175.5,230.5C 176.593,222.184 177.593,213.851 178.5,205.5C 182.833,205.5 187.167,205.5 191.5,205.5C 188.088,212.594 190.254,216.927 198,218.5C 203.409,218.59 205.909,215.923 205.5,210.5C 205.408,208.742 205.075,207.076 204.5,205.5C 208.371,205.815 212.038,205.482 215.5,204.5C 218.124,202.802 218.124,200.969 215.5,199C 203.505,198.5 191.505,198.333 179.5,198.5C 180.535,180.748 174.535,165.915 161.5,154C 153.167,148.333 144.833,142.667 136.5,137C 131.898,132.906 127.898,128.406 124.5,123.5C 128.288,118.54 132.288,113.707 136.5,109C 125.599,103.025 113.932,100.358 101.5,101C 99.8588,102.129 98.8588,103.629 98.5,105.5C 90.5209,105.628 84.6876,109.295 81,116.5C 76.4111,125.279 73.9111,134.613 73.5,144.5C 68.2474,123.197 66.7474,101.531 69,79.5C 69.6853,76.9427 71.1853,75.1094 73.5,74C 84.1917,72.2309 94.8584,72.5642 105.5,75C 123.456,78.4055 141.122,82.9055 158.5,88.5C 210.027,52.7031 264.027,48.5364 320.5,76C 327.446,80.6273 334.613,84.794 342,88.5C 366.464,80.6337 391.464,75.3004 417,72.5C 426.732,71.0034 432.065,75.0034 433,84.5C 433.825,99.9273 432.991,115.261 430.5,130.5 Z"/></g>
<g><path style="opacity:1" fill="#fbccd0" d="M 124.5,123.5 C 119.959,118.97 115.292,114.47 110.5,110C 106.97,107.283 102.97,105.783 98.5,105.5C 98.8588,103.629 99.8588,102.129 101.5,101C 113.932,100.358 125.599,103.025 136.5,109C 132.288,113.707 128.288,118.54 124.5,123.5 Z"/></g>
<g><path style="opacity:1" fill="#fbccd0" d="M 401.5,103.5 C 401.631,104.239 401.464,104.906 401,105.5C 398.417,106.874 395.917,108.374 393.5,110C 388.033,115.812 382.7,121.645 377.5,127.5C 372.553,121.544 367.553,115.544 362.5,109.5C 373.793,103.51 385.793,100.676 398.5,101C 399.942,101.377 400.942,102.21 401.5,103.5 Z"/></g>
<g><path style="opacity:0.999" fill="#abb7b3" d="M 401.5,103.5 C 406.674,103.885 411.674,105.052 416.5,107C 423.558,113.525 428.225,121.358 430.5,130.5C 432.309,149.111 433.309,167.777 433.5,186.5C 442.415,216.763 436.582,243.763 416,267.5C 407.946,275.554 399.946,283.554 392,291.5C 392.354,299.925 393.521,308.259 395.5,316.5C 394.867,330.568 390.367,343.235 382,354.5C 375.698,361.803 369.032,368.803 362,375.5C 359.206,380.464 357.539,385.797 357,391.5C 356.632,401.854 355.966,412.187 355,422.5C 353.38,428.896 349.88,434.062 344.5,438C 341.102,439.357 338.102,441.19 335.5,443.5C 322.824,447.668 309.824,449.168 296.5,448C 284.859,445.007 275.359,438.84 268,429.5C 266.336,426.673 265.17,423.673 264.5,420.5C 263.752,412.199 264.918,404.199 268,396.5C 272.499,388.164 277.499,380.164 283,372.5C 288.754,359.818 290.921,346.485 289.5,332.5C 288.834,324.505 288.168,316.505 287.5,308.5C 287.667,305.5 287.833,302.5 288,299.5C 291.182,289.467 296.182,280.467 303,272.5C 311,264.5 319,256.5 327,248.5C 331.204,241.403 332.537,233.736 331,225.5C 329.507,218.873 328.341,212.206 327.5,205.5C 320.5,205.5 313.5,205.5 306.5,205.5C 302.5,205.5 298.5,205.5 294.5,205.5C 304.987,204.506 315.654,204.172 326.5,204.5C 326.5,202.5 326.5,200.5 326.5,198.5C 325.702,178.264 333.369,162.097 349.5,150C 360.177,144.154 369.511,136.654 377.5,127.5C 382.7,121.645 388.033,115.812 393.5,110C 395.917,108.374 398.417,106.874 401,105.5C 401.464,104.906 401.631,104.239 401.5,103.5 Z"/></g>
<g><path style="opacity:0.999" fill="#abb7b3" d="M 98.5,105.5 C 102.97,105.783 106.97,107.283 110.5,110C 115.292,114.47 119.959,118.97 124.5,123.5C 127.898,128.406 131.898,132.906 136.5,137C 144.833,142.667 153.167,148.333 161.5,154C 174.535,165.915 180.535,180.748 179.5,198.5C 179.5,200.5 179.5,202.5 179.5,204.5C 191.5,204.5 203.5,204.5 215.5,204.5C 212.038,205.482 208.371,205.815 204.5,205.5C 200.167,205.5 195.833,205.5 191.5,205.5C 187.167,205.5 182.833,205.5 178.5,205.5C 177.593,213.851 176.593,222.184 175.5,230.5C 175.009,237.54 176.842,243.873 181,249.5C 189.637,257.136 197.97,265.136 206,273.5C 220.315,290.704 224.815,310.37 219.5,332.5C 218.004,342.522 218.837,352.522 222,362.5C 228.967,374.813 235.967,387.147 243,399.5C 244.89,405.015 245.724,410.681 245.5,416.5C 244.257,426.157 239.59,433.657 231.5,439C 217.378,449.027 202.044,451.361 185.5,446C 181.375,445.137 177.375,443.97 173.5,442.5C 163.229,438.06 156.729,430.394 154,419.5C 153.613,409.481 152.946,399.481 152,389.5C 151.466,385.232 150.133,381.232 148,377.5C 141.309,369.811 134.309,362.478 127,355.5C 118.728,344.517 113.894,332.184 112.5,318.5C 114.01,309.842 115.176,301.175 116,292.5C 106.721,283.221 97.3874,273.887 88,264.5C 75.821,250.64 69.6543,234.473 69.5,216C 70.8346,204.51 71.8346,193.01 72.5,181.5C 72.5729,169.158 72.9062,156.825 73.5,144.5C 73.9111,134.613 76.4111,125.279 81,116.5C 84.6876,109.295 90.5209,105.628 98.5,105.5 Z"/></g>
<g><path style="opacity:0.993" fill="#8e9597" d="M 72.5,181.5 C 71.8346,193.01 70.8346,204.51 69.5,216C 69.6543,234.473 75.821,250.64 88,264.5C 97.3874,273.887 106.721,283.221 116,292.5C 115.176,301.175 114.01,309.842 112.5,318.5C 113.894,332.184 118.728,344.517 127,355.5C 134.309,362.478 141.309,369.811 148,377.5C 150.133,381.232 151.466,385.232 152,389.5C 152.946,399.481 153.613,409.481 154,419.5C 156.729,430.394 163.229,438.06 173.5,442.5C 161.871,444.841 150.204,445.007 138.5,443C 128.413,441.392 121.58,435.892 118,426.5C 115.44,414.591 112.107,402.925 108,391.5C 102.649,385.581 96.4828,380.747 89.5,377C 70.7168,361.999 62.8835,342.499 66,318.5C 56.5,311.667 47,304.833 37.5,298C 17.0329,278.604 8.86627,254.771 13,226.5C 9.60814,209.311 8.27481,191.978 9,174.5C 13.2797,154.775 24.1131,149.941 41.5,160C 50.3534,169.362 60.6867,176.529 72.5,181.5 Z"/></g>
<g><path style="opacity:0.994" fill="#8e9597" d="M 335.5,443.5 C 338.102,441.19 341.102,439.357 344.5,438C 349.88,434.062 353.38,428.896 355,422.5C 355.966,412.187 356.632,401.854 357,391.5C 357.539,385.797 359.206,380.464 362,375.5C 369.032,368.803 375.698,361.803 382,354.5C 390.367,343.235 394.867,330.568 395.5,316.5C 393.521,308.259 392.354,299.925 392,291.5C 399.946,283.554 407.946,275.554 416,267.5C 436.582,243.763 442.415,216.763 433.5,186.5C 440.09,183.872 446.423,180.705 452.5,177C 459.88,170.618 467.547,164.618 475.5,159C 489.475,154.24 498.308,159.073 502,173.5C 502.979,178.111 503.479,182.777 503.5,187.5C 502.89,200.601 501.39,213.601 499,226.5C 498.092,238.486 497.425,250.486 497,262.5C 492.717,279.565 483.55,293.398 469.5,304C 461.404,309.131 453.571,314.631 446,320.5C 448.912,349.922 437.412,371.756 411.5,386C 405.295,390.236 401.461,396.07 400,403.5C 397.873,411.804 395.873,420.137 394,428.5C 391.928,435.573 387.428,440.406 380.5,443C 365.532,447.499 350.532,447.666 335.5,443.5 Z"/></g>
<g><path style="opacity:1" fill="#fbfafa" d="M 179.5,198.5 C 191.505,198.333 203.505,198.5 215.5,199C 218.124,200.969 218.124,202.802 215.5,204.5C 203.5,204.5 191.5,204.5 179.5,204.5C 179.5,202.5 179.5,200.5 179.5,198.5 Z"/></g>
<g><path style="opacity:1" fill="#faf9f9" d="M 326.5,198.5 C 326.5,200.5 326.5,202.5 326.5,204.5C 315.654,204.172 304.987,204.506 294.5,205.5C 294.167,205.5 293.833,205.5 293.5,205.5C 289.818,205.665 286.152,205.499 282.5,205C 279.833,203 279.833,201 282.5,199C 297.163,198.5 311.83,198.333 326.5,198.5 Z"/></g>
<g><path style="opacity:1" fill="#050404" d="M 191.5,205.5 C 195.833,205.5 200.167,205.5 204.5,205.5C 205.075,207.076 205.408,208.742 205.5,210.5C 205.909,215.923 203.409,218.59 198,218.5C 190.254,216.927 188.088,212.594 191.5,205.5 Z"/></g>
<g><path style="opacity:1" fill="#030202" d="M 293.5,205.5 C 293.833,205.5 294.167,205.5 294.5,205.5C 298.5,205.5 302.5,205.5 306.5,205.5C 310.196,212.775 308.029,217.108 300,218.5C 292.717,216.937 290.55,212.604 293.5,205.5 Z"/></g>
<g><path style="opacity:1" fill="#f7c8cc" d="M 245.5,223.5 C 251.008,222.722 255.508,224.389 259,228.5C 259.093,232.753 256.926,235.253 252.5,236C 246.512,237.505 242.178,235.505 239.5,230C 241.014,227.322 243.014,225.155 245.5,223.5 Z"/></g>
<g><path style="opacity:0.999" fill="#634f54" d="M 219.5,332.5 C 242.797,333.585 266.13,333.585 289.5,332.5C 290.921,346.485 288.754,359.818 283,372.5C 277.499,380.164 272.499,388.164 268,396.5C 264.918,404.199 263.752,412.199 264.5,420.5C 258.484,417.747 252.15,416.413 245.5,416.5C 245.724,410.681 244.89,405.015 243,399.5C 235.967,387.147 228.967,374.813 222,362.5C 218.837,352.522 218.004,342.522 219.5,332.5 Z"/></g>
</svg>
