<?xml version="1.0" encoding="UTF-8"?>
<!DOCTYPE svg PUBLIC "-//W3C//DTD SVG 1.1//EN" "http://www.w3.org/Graphics/SVG/1.1/DTD/svg11.dtd">
<svg xmlns="http://www.w3.org/2000/svg" version="1.1" width="512px" height="512px" style="shape-rendering:geometricPrecision; text-rendering:geometricPrecision; image-rendering:optimizeQuality; fill-rule:evenodd; clip-rule:evenodd" xmlns:xlink="http://www.w3.org/1999/xlink">
<g><path style="opacity:0.997" fill="#f7b279" d="M 347.5,97.5 C 347.414,98.4959 347.748,99.3292 348.5,100C 356.684,106.356 364.351,113.19 371.5,120.5C 387.754,138.007 400.754,157.674 410.5,179.5C 416.257,194.869 420.59,210.536 423.5,226.5C 425.634,246.416 424.301,266.083 419.5,285.5C 409.167,285.5 398.833,285.5 388.5,285.5C 388.227,280.788 386.227,276.955 382.5,274C 369.421,266.746 356.421,266.746 343.5,274C 339.238,276.691 337.238,280.524 337.5,285.5C 317.831,285.333 298.164,285.5 278.5,286C 272.538,288.116 269.538,292.283 269.5,298.5C 257.107,291.881 244.107,290.715 230.5,295C 220.129,299.532 214.129,307.365 212.5,318.5C 213.039,325.54 216.706,330.04 223.5,332C 231.833,332.31 240.166,332.143 248.5,331.5C 255.254,331.443 261.921,332.109 268.5,333.5C 268.5,344.833 268.5,356.167 268.5,367.5C 252.167,367.5 235.833,367.5 219.5,367.5C 183.321,366.789 149.321,357.956 117.5,341C 84.237,318.983 67.9036,287.817 68.5,247.5C 68.8663,238.139 69.5329,228.806 70.5,219.5C 72.637,211.629 74.8036,203.629 77,195.5C 79.8536,187.802 82.687,180.135 85.5,172.5C 91.1372,161.899 97.3038,151.566 104,141.5C 110.403,133.94 116.57,126.273 122.5,118.5C 130.525,111.471 138.525,104.471 146.5,97.5C 193.884,63.0387 245.551,54.872 301.5,73C 317.935,79.3804 333.268,87.5471 347.5,97.5 Z"/></g>
<g><path style="opacity:1" fill="#a6683b" d="M 241.5,76.5 C 249.755,76.8836 255.588,80.8836 259,88.5C 266.51,104.794 268.51,121.794 265,139.5C 262.993,147.686 258.827,154.519 252.5,160C 241.346,166.682 233.513,163.849 229,151.5C 222.582,134.408 220.248,116.742 222,98.5C 225.199,88.1397 231.699,80.8064 241.5,76.5 Z"/></g>
<g><path style="opacity:0.982" fill="#a6683b" d="M 146.5,97.5 C 138.525,104.471 130.525,111.471 122.5,118.5C 113.035,115.291 103.369,112.791 93.5,111C 89.0906,109.738 85.2572,110.572 82,113.5C 80.2097,117.995 79.3764,122.661 79.5,127.5C 80.4823,142.683 82.4823,157.683 85.5,172.5C 82.687,180.135 79.8536,187.802 77,195.5C 74.8036,203.629 72.637,211.629 70.5,219.5C 54.1603,179.134 46.327,137.134 47,93.5C 47.3953,89.9811 48.3953,86.6478 50,83.5C 54.5567,80.7841 59.5567,79.4508 65,79.5C 92.9565,82.4506 120.123,88.4506 146.5,97.5 Z"/></g>
<g><path style="opacity:0.984" fill="#a6683b" d="M 423.5,226.5 C 420.59,210.536 416.257,194.869 410.5,179.5C 415.43,159.15 417.597,138.484 417,117.5C 416.594,114.506 415.094,112.339 412.5,111C 398.089,110.852 384.422,114.019 371.5,120.5C 364.351,113.19 356.684,106.356 348.5,100C 347.748,99.3292 347.414,98.4959 347.5,97.5C 370.816,90.588 394.483,85.088 418.5,81C 426.849,79.1641 435.183,79.1641 443.5,81C 447.521,82.8679 449.687,86.0346 450,90.5C 451.735,137.989 442.902,183.322 423.5,226.5 Z"/></g>
<g><path style="opacity:1" fill="#a7683b" d="M 196.5,88.5 C 202.89,89.3766 207.057,93.0433 209,99.5C 210.952,110.761 207.452,119.927 198.5,127C 193.03,128.221 189.53,126.054 188,120.5C 184.8,112.1 184.8,103.766 188,95.5C 190.628,92.7895 193.461,90.4562 196.5,88.5 Z"/></g>
<g><path style="opacity:1" fill="#a7693c" d="M 291.5,88.5 C 294.785,88.2693 297.285,89.6026 299,92.5C 303.594,100.951 305.261,109.951 304,119.5C 300.641,126.873 295.475,128.373 288.5,124C 280.042,116.338 278.542,107.505 284,97.5C 286.335,94.3347 288.835,91.3347 291.5,88.5 Z"/></g>
<g><path style="opacity:1" fill="#fecdd1" d="M 122.5,118.5 C 116.57,126.273 110.403,133.94 104,141.5C 97.3038,151.566 91.1372,161.899 85.5,172.5C 82.4823,157.683 80.4823,142.683 79.5,127.5C 79.3764,122.661 80.2097,117.995 82,113.5C 85.2572,110.572 89.0906,109.738 93.5,111C 103.369,112.791 113.035,115.291 122.5,118.5 Z"/></g>
<g><path style="opacity:1" fill="#fecdd0" d="M 410.5,179.5 C 400.754,157.674 387.754,138.007 371.5,120.5C 384.422,114.019 398.089,110.852 412.5,111C 415.094,112.339 416.594,114.506 417,117.5C 417.597,138.484 415.43,159.15 410.5,179.5 Z"/></g>
<g><path style="opacity:1" fill="#a6683b" d="M 133.5,234.5 C 126.5,234.5 119.5,234.5 112.5,234.5C 109.482,234.665 106.482,234.498 103.5,234C 100.833,231.667 100.833,229.333 103.5,227C 134.5,226.333 165.5,226.333 196.5,227C 199.167,229.333 199.167,231.667 196.5,234C 175.503,234.5 154.503,234.667 133.5,234.5 Z"/></g>
<g><path style="opacity:1" fill="#a6683b" d="M 328.5,235.5 C 321.167,234.167 313.833,234.167 306.5,235.5C 303.695,234.681 300.695,234.181 297.5,234C 294.833,231.667 294.833,229.333 297.5,227C 328.5,226.333 359.5,226.333 390.5,227C 393.167,229.333 393.167,231.667 390.5,234C 369.663,234.168 348.996,234.668 328.5,235.5 Z"/></g>
<g><path style="opacity:1" fill="#0c0704" d="M 112.5,234.5 C 119.5,234.5 126.5,234.5 133.5,234.5C 135.53,246.305 130.53,251.472 118.5,250C 112.657,246.301 110.657,241.134 112.5,234.5 Z"/></g>
<g><path style="opacity:1" fill="#080402" d="M 328.5,235.5 C 328.828,247.679 323.162,252.179 311.5,249C 307.083,245.57 305.416,241.07 306.5,235.5C 313.833,234.167 321.167,234.167 328.5,235.5 Z"/></g>
<g><path style="opacity:1" fill="#a96a3d" d="M 242.5,261.5 C 248.164,260.888 252.998,262.554 257,266.5C 257.682,270.18 256.182,272.68 252.5,274C 246.153,276.714 240.653,275.547 236,270.5C 235.333,269.167 235.333,267.833 236,266.5C 237.965,264.45 240.132,262.783 242.5,261.5 Z"/></g>
<g><path style="opacity:1" fill="#feced1" d="M 388.5,285.5 C 371.5,285.5 354.5,285.5 337.5,285.5C 337.238,280.524 339.238,276.691 343.5,274C 356.421,266.746 369.421,266.746 382.5,274C 386.227,276.955 388.227,280.788 388.5,285.5 Z"/></g>
<g><path style="opacity:1" fill="#feced1" d="M 119.5,273.5 C 129.966,272.368 139.633,274.535 148.5,280C 155.928,288.759 154.595,296.092 144.5,302C 135.816,305.372 126.816,306.372 117.5,305C 107.451,302.64 102.285,296.473 102,286.5C 103.061,283.438 104.894,280.938 107.5,279C 111.481,276.838 115.481,275.005 119.5,273.5 Z"/></g>
<g><path style="opacity:0.997" fill="#806667" d="M 337.5,285.5 C 354.5,285.5 371.5,285.5 388.5,285.5C 398.833,285.5 409.167,285.5 419.5,285.5C 442.502,285.333 465.502,285.5 488.5,286C 492.333,287.167 494.833,289.667 496,293.5C 496.986,344.225 496.653,394.892 495,445.5C 493.457,447.378 491.624,448.878 489.5,450C 418.834,450.5 348.167,450.667 277.5,450.5C 274.02,448.824 271.52,446.158 270,442.5C 269.501,437.177 269.334,431.844 269.5,426.5C 265.5,426.5 261.5,426.5 257.5,426.5C 257.5,426.167 257.5,425.833 257.5,425.5C 261.5,425.5 265.5,425.5 269.5,425.5C 269.5,394.833 269.5,364.167 269.5,333.5C 269.5,321.833 269.5,310.167 269.5,298.5C 269.538,292.283 272.538,288.116 278.5,286C 298.164,285.5 317.831,285.333 337.5,285.5 Z"/></g>
<g><path style="opacity:1" fill="#feced1" d="M 269.5,298.5 C 269.5,310.167 269.5,321.833 269.5,333.5C 269.167,333.5 268.833,333.5 268.5,333.5C 261.921,332.109 255.254,331.443 248.5,331.5C 240.166,332.143 231.833,332.31 223.5,332C 216.706,330.04 213.039,325.54 212.5,318.5C 214.129,307.365 220.129,299.532 230.5,295C 244.107,290.715 257.107,291.881 269.5,298.5 Z"/></g>
<g><path style="opacity:0.951" fill="#7f6566" d="M 60.5,297.5 C 77.7521,302.017 84.9187,313.017 82,330.5C 79.5787,335.923 75.5787,339.589 70,341.5C 71.5223,355.673 65.3556,364.839 51.5,369C 35.8885,370.111 24.0552,363.944 16,350.5C 15.3333,347.833 15.3333,345.167 16,342.5C 24.6667,333.167 33.3333,323.833 42,314.5C 47.7865,308.205 53.9531,302.538 60.5,297.5 Z M 62.5,316.5 C 66.3184,317.799 67.8184,320.466 67,324.5C 63.2987,326.391 59.4654,326.225 55.5,324C 58.0386,321.63 60.3719,319.13 62.5,316.5 Z M 42.5,337.5 C 48.1565,338.983 52.1565,342.483 54.5,348C 47.6027,355.417 40.9361,355.084 34.5,347C 37.0017,343.667 39.6684,340.501 42.5,337.5 Z"/></g>
<g><path style="opacity:0.942" fill="#806566" d="M 113.5,372.5 C 112.833,372.5 112.5,372.833 112.5,373.5C 103.74,384.882 92.7395,393.382 79.5,399C 64.6667,400.167 57.8333,393.333 59,378.5C 64.7847,362.116 74.618,348.616 88.5,338C 98.0482,337.253 101.215,341.42 98,350.5C 87.8416,359.317 80.0083,369.817 74.5,382C 74.8333,382.5 75.1667,383 75.5,383.5C 79.6682,381.25 83.6682,378.75 87.5,376C 92.8874,370.613 98.2208,365.279 103.5,360C 112.864,359.205 116.197,363.372 113.5,372.5 Z"/></g>
<g><path style="opacity:1" fill="#f9cace" d="M 379.5,341.5 C 385.07,340.416 389.57,342.083 393,346.5C 398.522,343.398 403.522,344.065 408,348.5C 409.692,351.644 410.858,354.977 411.5,358.5C 416.987,363.768 417.821,369.768 414,376.5C 412.363,378.81 410.196,380.31 407.5,381C 402.035,392.178 393.035,396.511 380.5,394C 371.116,390.402 366.283,383.569 366,373.5C 359.613,365.868 360.113,358.701 367.5,352C 369.345,350.872 371.345,350.372 373.5,350.5C 374.26,346.639 376.26,343.639 379.5,341.5 Z"/></g>
<g><path style="opacity:1" fill="#826869" d="M 379.5,347.5 C 384.006,346.527 386.172,348.194 386,352.5C 384.135,354.673 381.969,355.007 379.5,353.5C 378.306,351.484 378.306,349.484 379.5,347.5 Z"/></g>
<g><path style="opacity:1" fill="#856a6b" d="M 397.5,349.5 C 402.006,348.527 404.172,350.194 404,354.5C 400.498,357.466 397.665,356.966 395.5,353C 395.978,351.697 396.645,350.531 397.5,349.5 Z"/></g>
<g><path style="opacity:1" fill="#826769" d="M 367.5,359.5 C 372.006,358.527 374.172,360.194 374,364.5C 372.135,366.673 369.969,367.007 367.5,365.5C 366.306,363.484 366.306,361.484 367.5,359.5 Z"/></g>
<g><path style="opacity:1" fill="#826768" d="M 407.5,365.5 C 412.663,365.107 414.33,367.273 412.5,372C 406.244,372.934 404.577,370.767 407.5,365.5 Z"/></g>
<g><path style="opacity:0.945" fill="#7f6566" d="M 112.5,373.5 C 113.167,373.5 113.5,373.167 113.5,372.5C 119.799,366.477 127.132,364.977 135.5,368C 139.869,369.421 143.369,371.921 146,375.5C 147.758,381.992 145.425,385.992 139,387.5C 135.065,386.365 131.398,384.698 128,382.5C 127.055,382.905 126.388,383.572 126,384.5C 125.834,393.353 126.334,402.186 127.5,411C 127.782,426.509 120.449,432.509 105.5,429C 100.554,427.194 95.8878,424.861 91.5,422C 86.7154,415.052 88.3821,410.219 96.5,407.5C 101.375,409.05 106.042,411.05 110.5,413.5C 110.833,412.167 111.167,410.833 111.5,409.5C 108.673,397.346 109.006,385.346 112.5,373.5 Z"/></g>
<g><path style="opacity:0.996" fill="#efa568" d="M 268.5,333.5 C 268.833,333.5 269.167,333.5 269.5,333.5C 269.5,364.167 269.5,394.833 269.5,425.5C 265.5,425.5 261.5,425.5 257.5,425.5C 267.382,405.397 262.049,390.564 241.5,381C 234.003,378.801 226.337,377.968 218.5,378.5C 218.942,374.846 219.276,371.179 219.5,367.5C 235.833,367.5 252.167,367.5 268.5,367.5C 268.5,356.167 268.5,344.833 268.5,333.5 Z"/></g>
<g><path style="opacity:1" fill="#826869" d="M 383.5,366.5 C 394.719,366.216 399.886,371.55 399,382.5C 398.215,384.286 397.049,385.786 395.5,387C 389.683,389.198 384.017,388.865 378.5,386C 372.117,377.412 373.784,370.912 383.5,366.5 Z"/></g>
<g><path style="opacity:0.991" fill="#a6683b" d="M 218.5,378.5 C 226.337,377.968 234.003,378.801 241.5,381C 262.049,390.564 267.382,405.397 257.5,425.5C 257.5,425.833 257.5,426.167 257.5,426.5C 244.571,438.036 229.904,440.703 213.5,434.5C 193.951,425.025 188.785,410.358 198,390.5C 203.259,383.727 210.092,379.727 218.5,378.5 Z"/></g>
<g><path style="opacity:0.956" fill="#7e6465" d="M 155.5,379.5 C 159.426,379.047 162.592,380.38 165,383.5C 166.163,390.103 166.83,396.77 167,403.5C 170.641,399.353 175.141,396.687 180.5,395.5C 186.631,396.129 189.131,399.462 188,405.5C 187.727,407.329 186.893,408.829 185.5,410C 182.228,411.608 179.228,413.608 176.5,416C 165.201,425.631 154.201,435.631 143.5,446C 136.574,448.575 132.24,446.242 130.5,439C 131,437.5 131.5,436 132,434.5C 138.302,429.199 144.302,423.532 150,417.5C 150.333,406.167 150.667,394.833 151,383.5C 152.397,381.93 153.897,380.596 155.5,379.5 Z"/></g>
<g><path style="opacity:0.995" fill="#634f53" d="M 257.5,426.5 C 261.5,426.5 265.5,426.5 269.5,426.5C 269.334,431.844 269.501,437.177 270,442.5C 271.52,446.158 274.02,448.824 277.5,450.5C 258.83,450.667 240.164,450.5 221.5,450C 214.536,447.244 211.87,442.077 213.5,434.5C 229.904,440.703 244.571,438.036 257.5,426.5 Z"/></g>
</svg>
