<?xml version="1.0" encoding="UTF-8"?>
<!DOCTYPE svg PUBLIC "-//W3C//DTD SVG 1.1//EN" "http://www.w3.org/Graphics/SVG/1.1/DTD/svg11.dtd">
<svg xmlns="http://www.w3.org/2000/svg" version="1.1" width="512px" height="512px" style="shape-rendering:geometricPrecision; text-rendering:geometricPrecision; image-rendering:optimizeQuality; fill-rule:evenodd; clip-rule:evenodd" xmlns:xlink="http://www.w3.org/1999/xlink">
<g><path style="opacity:0.999" fill="#feb44a" d="M 251.5,97.5 C 252.745,115.129 254.912,132.796 258,150.5C 262.095,153.637 264.762,152.637 266,147.5C 268.492,130.915 269.992,114.248 270.5,97.5C 282.519,97.6251 294.186,99.2917 305.5,102.5C 304.069,102.881 303.236,103.881 303,105.5C 301.496,119.133 301.163,132.8 302,146.5C 304.84,149.371 307.174,149.037 309,145.5C 313.352,132.615 317.185,119.615 320.5,106.5C 342.67,113.418 363.003,123.751 381.5,137.5C 401.54,152.54 418.873,170.206 433.5,190.5C 441.3,203.768 448.3,217.434 454.5,231.5C 454.402,233.553 455.069,235.22 456.5,236.5C 463.199,257.373 465.199,278.706 462.5,300.5C 451.153,312.671 438.153,322.671 423.5,330.5C 412.247,328.527 400.914,327.027 389.5,326C 377.838,325.5 366.171,325.333 354.5,325.5C 354.5,326.5 354.5,327.5 354.5,328.5C 371.893,328.12 389.227,328.954 406.5,331C 410.038,331.535 413.372,332.368 416.5,333.5C 404.301,338.789 391.634,342.455 378.5,344.5C 369.955,342.197 361.288,340.53 352.5,339.5C 352.5,340.5 352.5,341.5 352.5,342.5C 358.809,342.959 364.809,344.293 370.5,346.5C 353.113,349.656 336.78,346.822 321.5,338C 310.339,329.916 298.672,322.583 286.5,316C 267.864,309.429 249.531,310.096 231.5,318C 222.228,323.608 213.228,329.608 204.5,336C 188.46,345.508 171.127,349.342 152.5,347.5C 159.942,345.224 167.609,343.391 175.5,342C 175.957,341.586 176.291,341.086 176.5,340.5C 173.554,339.345 170.554,339.179 167.5,340C 160.136,341.841 152.803,343.674 145.5,345.5C 132.053,343.644 119.386,339.644 107.5,333.5C 129.594,329.586 151.928,327.919 174.5,328.5C 174.5,327.5 174.5,326.5 174.5,325.5C 149.861,324.155 125.528,326.155 101.5,331.5C 84.8399,323.18 70.5066,311.847 58.5,297.5C 56.1534,278.762 57.8201,260.428 63.5,242.5C 64.1495,240.565 64.4828,238.565 64.5,236.5C 70.7594,221.314 78.0928,206.648 86.5,192.5C 101.812,171.855 119.479,153.522 139.5,137.5C 157.954,123.772 178.287,113.439 200.5,106.5C 203.86,119.602 207.694,132.602 212,145.5C 214.617,149.476 217.284,149.476 220,145.5C 220.342,130.808 219.842,116.141 218.5,101.5C 229.336,98.9373 240.336,97.6039 251.5,97.5 Z"/></g>
<g><path style="opacity:1" fill="#dd7410" d="M 251.5,97.5 C 257.833,96.1667 264.167,96.1667 270.5,97.5C 269.992,114.248 268.492,130.915 266,147.5C 264.762,152.637 262.095,153.637 258,150.5C 254.912,132.796 252.745,115.129 251.5,97.5 Z"/></g>
<g><path style="opacity:1" fill="#de7512" d="M 218.5,101.5 C 219.842,116.141 220.342,130.808 220,145.5C 217.284,149.476 214.617,149.476 212,145.5C 207.694,132.602 203.86,119.602 200.5,106.5C 206.224,104.233 212.224,102.566 218.5,101.5 Z"/></g>
<g><path style="opacity:1" fill="#dd7410" d="M 305.5,102.5 C 310.809,103.076 315.809,104.409 320.5,106.5C 317.185,119.615 313.352,132.615 309,145.5C 307.174,149.037 304.84,149.371 302,146.5C 301.163,132.8 301.496,119.133 303,105.5C 303.236,103.881 304.069,102.881 305.5,102.5 Z"/></g>
<g><path style="opacity:0.98" fill="#dd7310" d="M 139.5,137.5 C 119.479,153.522 101.812,171.855 86.5,192.5C 80.3951,191.523 74.3951,190.023 68.5,188C 47.7861,180.763 27.1194,173.763 6.5,167C 19.1575,195.817 38.4908,218.983 64.5,236.5C 64.4828,238.565 64.1495,240.565 63.5,242.5C 43.5647,229.732 27.0647,213.398 14,193.5C 8.88542,184.932 4.05209,176.266 -0.5,167.5C -0.5,165.167 -0.5,162.833 -0.5,160.5C 44.9238,145.485 91.5905,137.818 139.5,137.5 Z"/></g>
<g><path style="opacity:0.978" fill="#dd7310" d="M 381.5,137.5 C 425.978,138.913 469.311,146.579 511.5,160.5C 511.5,162.833 511.5,165.167 511.5,167.5C 498.749,194.921 480.415,217.921 456.5,236.5C 455.069,235.22 454.402,233.553 454.5,231.5C 476.553,214.253 493.22,192.753 504.5,167C 480.952,174.905 457.286,182.738 433.5,190.5C 418.873,170.206 401.54,152.54 381.5,137.5 Z"/></g>
<g><path style="opacity:1" fill="#f8ded3" d="M 86.5,192.5 C 78.0928,206.648 70.7594,221.314 64.5,236.5C 38.4908,218.983 19.1575,195.817 6.5,167C 27.1194,173.763 47.7861,180.763 68.5,188C 74.3951,190.023 80.3951,191.523 86.5,192.5 Z"/></g>
<g><path style="opacity:1" fill="#f8ddd2" d="M 454.5,231.5 C 448.3,217.434 441.3,203.768 433.5,190.5C 457.286,182.738 480.952,174.905 504.5,167C 493.22,192.753 476.553,214.253 454.5,231.5 Z"/></g>
<g><path style="opacity:1" fill="#de7511" d="M 284.5,184.5 C 291.179,186.56 297.846,188.726 304.5,191C 312.167,192 319.833,193 327.5,194C 328.833,195.333 328.833,196.667 327.5,198C 310.987,203.745 296.487,200.578 284,188.5C 283.421,187.072 283.588,185.738 284.5,184.5 Z"/></g>
<g><path style="opacity:1" fill="#de7511" d="M 227.5,184.5 C 231.071,184.408 232.238,186.074 231,189.5C 219.524,198.995 206.357,202.495 191.5,200C 187.012,199.267 186.012,197.267 188.5,194C 202.305,193.541 215.305,190.375 227.5,184.5 Z"/></g>
<g><path style="opacity:1" fill="#5a2405" d="M 227.5,267.5 C 222.176,252.683 213.843,239.85 202.5,229C 182.439,215.835 162.772,216.502 143.5,231C 130.501,241.492 119.501,253.659 110.5,267.5C 109.522,267.189 108.855,266.522 108.5,265.5C 119.238,234.75 140.571,216.75 172.5,211.5C 189.62,211.977 203.453,218.977 214,232.5C 220.851,242.204 225.684,252.871 228.5,264.5C 228.48,265.726 228.147,266.726 227.5,267.5 Z"/></g>
<g><path style="opacity:1" fill="#5a2406" d="M 404.5,266.5 C 394.784,252.947 383.451,240.78 370.5,230C 341.925,211.979 318.091,216.812 299,244.5C 294.867,251.769 291.034,259.102 287.5,266.5C 290.475,242.307 303.141,224.807 325.5,214C 345.917,209.354 364.25,213.687 380.5,227C 392.397,237.461 401.063,250.128 406.5,265C 406.164,266.03 405.497,266.53 404.5,266.5 Z"/></g>
<g><path style="opacity:1" fill="#dcfbd5" d="M 227.5,267.5 C 219.871,295.485 201.537,309.819 172.5,310.5C 152.055,309.527 135.221,301.194 122,285.5C 117.407,279.98 113.574,273.98 110.5,267.5C 119.501,253.659 130.501,241.492 143.5,231C 162.772,216.502 182.439,215.835 202.5,229C 213.843,239.85 222.176,252.683 227.5,267.5 Z"/></g>
<g><path style="opacity:1" fill="#dcfcd5" d="M 404.5,266.5 C 387.224,302.305 359.224,315.805 320.5,307C 302.997,298.841 291.997,285.341 287.5,266.5C 291.034,259.102 294.867,251.769 299,244.5C 318.091,216.812 341.925,211.979 370.5,230C 383.451,240.78 394.784,252.947 404.5,266.5 Z"/></g>
<g><path style="opacity:1" fill="#fcf7f7" d="M 202.5,250.5 C 200.916,253.426 198.916,256.092 196.5,258.5C 184.166,264.746 175.666,261.412 171,248.5C 170.19,244.31 170.69,240.31 172.5,236.5C 174.5,234.5 176.5,232.5 178.5,230.5C 195.228,226.85 203.228,233.517 202.5,250.5 Z"/></g>
<g><path style="opacity:1" fill="#fcf7f7" d="M 373.5,250.5 C 371.916,253.426 369.916,256.092 367.5,258.5C 355.719,264.69 347.219,261.69 342,249.5C 341.055,244.939 341.555,240.606 343.5,236.5C 345.5,234.5 347.5,232.5 349.5,230.5C 366.228,226.85 374.228,233.517 373.5,250.5 Z"/></g>
<g><path style="opacity:1" fill="#562205" d="M 178.5,230.5 C 176.5,232.5 174.5,234.5 172.5,236.5C 159.774,236.451 151.274,242.451 147,254.5C 144.372,268.31 149.206,278.476 161.5,285C 166.762,286.439 172.096,286.772 177.5,286C 180.599,285.613 183.266,284.446 185.5,282.5C 194.879,282.789 198.213,278.456 195.5,269.5C 197.27,265.906 197.603,262.24 196.5,258.5C 198.916,256.092 200.916,253.426 202.5,250.5C 207.794,265.494 204.794,278.661 193.5,290C 170.519,303.893 152.686,299.059 140,275.5C 135.007,253.314 143.173,238.481 164.5,231C 169.155,230.501 173.821,230.334 178.5,230.5 Z"/></g>
<g><path style="opacity:1" fill="#572206" d="M 349.5,230.5 C 347.5,232.5 345.5,234.5 343.5,236.5C 330.335,236.49 321.835,242.824 318,255.5C 315.504,270.009 321.004,280.176 334.5,286C 339.167,286.667 343.833,286.667 348.5,286C 351.599,285.613 354.266,284.446 356.5,282.5C 365.879,282.789 369.213,278.456 366.5,269.5C 367.344,265.901 367.677,262.234 367.5,258.5C 369.916,256.092 371.916,253.426 373.5,250.5C 380.201,273.598 372.201,289.098 349.5,297C 329.117,299.405 315.95,290.905 310,271.5C 306.818,252.697 313.985,239.531 331.5,232C 337.407,230.639 343.407,230.139 349.5,230.5 Z"/></g>
<g><path style="opacity:1" fill="#1d0c03" d="M 172.5,236.5 C 170.69,240.31 170.19,244.31 171,248.5C 175.666,261.412 184.166,264.746 196.5,258.5C 197.603,262.24 197.27,265.906 195.5,269.5C 185.641,264.176 181.141,267.176 182,278.5C 183.376,279.705 184.542,281.038 185.5,282.5C 183.266,284.446 180.599,285.613 177.5,286C 172.096,286.772 166.762,286.439 161.5,285C 149.206,278.476 144.372,268.31 147,254.5C 151.274,242.451 159.774,236.451 172.5,236.5 Z"/></g>
<g><path style="opacity:1" fill="#1d0c03" d="M 343.5,236.5 C 341.555,240.606 341.055,244.939 342,249.5C 347.219,261.69 355.719,264.69 367.5,258.5C 367.677,262.234 367.344,265.901 366.5,269.5C 357.841,264 353.008,266.333 352,276.5C 352.979,278.968 354.479,280.968 356.5,282.5C 354.266,284.446 351.599,285.613 348.5,286C 343.833,286.667 339.167,286.667 334.5,286C 321.004,280.176 315.504,270.009 318,255.5C 321.835,242.824 330.335,236.49 343.5,236.5 Z"/></g>
<g><path style="opacity:1" fill="#faf4f4" d="M 195.5,269.5 C 198.213,278.456 194.879,282.789 185.5,282.5C 184.542,281.038 183.376,279.705 182,278.5C 181.141,267.176 185.641,264.176 195.5,269.5 Z"/></g>
<g><path style="opacity:1" fill="#f7f1f1" d="M 366.5,269.5 C 369.213,278.456 365.879,282.789 356.5,282.5C 354.479,280.968 352.979,278.968 352,276.5C 353.008,266.333 357.841,264 366.5,269.5 Z"/></g>
<g><path style="opacity:1" fill="#f8eee0" d="M 58.5,297.5 C 70.5066,311.847 84.8399,323.18 101.5,331.5C 91.6384,333.049 81.9717,335.382 72.5,338.5C 65.0453,325.803 60.3786,312.136 58.5,297.5 Z"/></g>
<g><path style="opacity:1" fill="#f7eddf" d="M 462.5,300.5 C 460.401,313.354 456.067,325.354 449.5,336.5C 440.723,334.488 432.056,332.488 423.5,330.5C 438.153,322.671 451.153,312.671 462.5,300.5 Z"/></g>
<g><path style="opacity:1" fill="#f8f0e5" d="M 370.5,346.5 C 389.393,350.572 407.059,357.572 423.5,367.5C 416.755,372.92 409.755,377.92 402.5,382.5C 388.591,369.714 372.924,359.714 355.5,352.5C 355.33,353.822 355.663,354.989 356.5,356C 372.437,362.79 386.437,372.29 398.5,384.5C 368.33,399.832 336.33,408.998 302.5,412C 250.722,417.956 200.056,412.956 150.5,397C 142.812,393.821 135.145,390.654 127.5,387.5C 140.041,373.698 155.041,363.031 172.5,355.5C 173.711,354.726 173.711,353.893 172.5,353C 166.377,355.055 160.377,357.721 154.5,361C 143.42,367.922 133.087,375.755 123.5,384.5C 115.436,380.476 108.103,375.476 101.5,369.5C 117.364,359.739 134.364,352.406 152.5,347.5C 171.127,349.342 188.46,345.508 204.5,336C 213.228,329.608 222.228,323.608 231.5,318C 249.531,310.096 267.864,309.429 286.5,316C 298.672,322.583 310.339,329.916 321.5,338C 336.78,346.822 353.113,349.656 370.5,346.5 Z"/></g>
<g><path style="opacity:0.938" fill="#24140a" d="M 107.5,333.5 C 98.7237,334.755 90.057,336.589 81.5,339C 78.7187,339.522 76.3854,340.689 74.5,342.5C 66.0979,344.635 57.7646,346.968 49.5,349.5C 49.2267,347.549 49.8934,346.049 51.5,345C 58.3014,342.121 65.3014,339.955 72.5,338.5C 81.9717,335.382 91.6384,333.049 101.5,331.5C 125.528,326.155 149.861,324.155 174.5,325.5C 174.5,326.5 174.5,327.5 174.5,328.5C 151.928,327.919 129.594,329.586 107.5,333.5 Z"/></g>
<g><path style="opacity:0.937" fill="#221309" d="M 423.5,330.5 C 432.056,332.488 440.723,334.488 449.5,336.5C 459.63,339.099 469.63,342.099 479.5,345.5C 479.5,346.833 479.5,348.167 479.5,349.5C 468.859,346.51 458.192,343.51 447.5,340.5C 437.674,336.421 427.341,334.087 416.5,333.5C 413.372,332.368 410.038,331.535 406.5,331C 389.227,328.954 371.893,328.12 354.5,328.5C 354.5,327.5 354.5,326.5 354.5,325.5C 366.171,325.333 377.838,325.5 389.5,326C 400.914,327.027 412.247,328.527 423.5,330.5 Z"/></g>
<g><path style="opacity:1" fill="#582206" d="M 245.5,327.5 C 254.839,327.334 264.173,327.5 273.5,328C 276.043,328.14 278.377,328.806 280.5,330C 274.602,335.734 268.269,340.901 261.5,345.5C 255.359,341.192 249.359,336.692 243.5,332C 242.663,330.989 242.33,329.822 242.5,328.5C 243.791,328.737 244.791,328.404 245.5,327.5 Z"/></g>
<g><path style="opacity:1" fill="#f6ede2" d="M 416.5,333.5 C 427.341,334.087 437.674,336.421 447.5,340.5C 441.32,348.83 434.654,356.83 427.5,364.5C 411.441,356.964 395.107,350.297 378.5,344.5C 391.634,342.455 404.301,338.789 416.5,333.5 Z"/></g>
<g><path style="opacity:1" fill="#f6eee3" d="M 107.5,333.5 C 119.386,339.644 132.053,343.644 145.5,345.5C 129.293,351.935 113.293,358.935 97.5,366.5C 92.9083,363.414 88.7417,359.747 85,355.5C 81.4809,351.097 77.9809,346.763 74.5,342.5C 76.3854,340.689 78.7187,339.522 81.5,339C 90.057,336.589 98.7237,334.755 107.5,333.5 Z"/></g>
<g><path style="opacity:0.926" fill="#23140c" d="M 152.5,347.5 C 134.364,352.406 117.364,359.739 101.5,369.5C 93.778,373.718 86.4447,378.551 79.5,384C 77.9751,385.009 76.3084,385.509 74.5,385.5C 74.178,383.278 74.8446,381.444 76.5,380C 83.5647,375.476 90.5647,370.976 97.5,366.5C 113.293,358.935 129.293,351.935 145.5,345.5C 152.803,343.674 160.136,341.841 167.5,340C 170.554,339.179 173.554,339.345 176.5,340.5C 176.291,341.086 175.957,341.586 175.5,342C 167.609,343.391 159.942,345.224 152.5,347.5 Z"/></g>
<g><path style="opacity:0.906" fill="#22140b" d="M 378.5,344.5 C 395.107,350.297 411.441,356.964 427.5,364.5C 436.308,369.739 444.974,375.239 453.5,381C 455.167,384.333 454.167,385.667 450.5,385C 441.886,378.55 432.886,372.716 423.5,367.5C 407.059,357.572 389.393,350.572 370.5,346.5C 364.809,344.293 358.809,342.959 352.5,342.5C 352.5,341.5 352.5,340.5 352.5,339.5C 361.288,340.53 369.955,342.197 378.5,344.5 Z"/></g>
<g><path style="opacity:0.92" fill="#22140e" d="M 127.5,387.5 C 120.803,393.866 114.803,400.866 109.5,408.5C 108.311,409.429 106.978,409.762 105.5,409.5C 105.264,406.774 106.097,404.441 108,402.5C 112.938,396.282 118.105,390.282 123.5,384.5C 133.087,375.755 143.42,367.922 154.5,361C 160.377,357.721 166.377,355.055 172.5,353C 173.711,353.893 173.711,354.726 172.5,355.5C 155.041,363.031 140.041,373.698 127.5,387.5 Z"/></g>
<g><path style="opacity:1" fill="#5b250a" d="M 253.5,353.5 C 265.505,351.422 275.338,355.089 283,364.5C 283.483,365.448 283.649,366.448 283.5,367.5C 279.437,365.632 275.437,363.465 271.5,361C 259.771,356.408 249.437,358.574 240.5,367.5C 239.386,366.277 239.219,364.944 240,363.5C 243.767,359.048 248.267,355.714 253.5,353.5 Z"/></g>
<g><path style="opacity:0.903" fill="#21140d" d="M 402.5,382.5 C 408.467,388.637 414.301,394.97 420,401.5C 421.993,403.818 423.159,406.484 423.5,409.5C 422.127,409.657 420.793,409.49 419.5,409C 413.413,400.078 406.413,391.911 398.5,384.5C 386.437,372.29 372.437,362.79 356.5,356C 355.663,354.989 355.33,353.822 355.5,352.5C 372.924,359.714 388.591,369.714 402.5,382.5 Z"/></g>
</svg>
