<?xml version="1.0" encoding="UTF-8"?>
<!DOCTYPE svg PUBLIC "-//W3C//DTD SVG 1.1//EN" "http://www.w3.org/Graphics/SVG/1.1/DTD/svg11.dtd">
<svg xmlns="http://www.w3.org/2000/svg" version="1.1" width="512px" height="512px" style="shape-rendering:geometricPrecision; text-rendering:geometricPrecision; image-rendering:optimizeQuality; fill-rule:evenodd; clip-rule:evenodd" xmlns:xlink="http://www.w3.org/1999/xlink">
<g><path style="opacity:0.932" fill="#a6673a" d="M 233.5,15.5 C 247.859,16.2691 262.193,17.4358 276.5,19C 282.505,19.5055 284.672,22.6722 283,28.5C 273.278,36.6101 263.112,44.1101 252.5,51C 258.61,51.088 264.61,51.7547 270.5,53C 273.366,56.9434 273.032,60.6101 269.5,64C 256.167,64.6667 242.833,64.6667 229.5,64C 224.972,61.1762 224.305,57.5095 227.5,53C 238.446,45.7209 249.112,38.0543 259.5,30C 251.13,29.2922 242.797,28.2922 234.5,27C 230.92,23.4419 230.587,19.6085 233.5,15.5 Z"/></g>
<g><path style="opacity:0.939" fill="#a6683a" d="M 199.5,26.5 C 205.11,25.4573 208.443,27.624 209.5,33C 204.584,44.3335 199.251,55.5002 193.5,66.5C 197.6,65.6294 201.6,63.7961 205.5,61C 212.83,59.3338 215.997,62.1671 215,69.5C 204.352,76.7982 193.185,83.2982 181.5,89C 174.333,90.5 171.5,87.6667 173,80.5C 178.167,69.5 183.333,58.5 188.5,47.5C 188,47.1667 187.5,46.8333 187,46.5C 180.086,49.8747 172.92,52.5414 165.5,54.5C 160.21,53.6964 158.377,50.6964 160,45.5C 161.214,43.9512 162.714,42.7845 164.5,42C 176.492,37.3323 188.159,32.1657 199.5,26.5 Z"/></g>
<g><path style="opacity:0.939" fill="#a6673a" d="M 137.5,38.5 C 142.713,37.7617 145.713,39.9284 146.5,45C 140.228,65.8024 134.395,86.6357 129,107.5C 138.833,99.6667 148.667,91.8333 158.5,84C 165.667,82.5 168.5,85.3333 167,92.5C 151.525,105.304 136.025,118.137 120.5,131C 115.044,133.441 111.378,131.774 109.5,126C 116.386,104.276 122.553,82.4428 128,60.5C 114.424,70.0391 100.591,79.2058 86.5,88C 79.6667,89.1667 76.8333,86.3333 78,79.5C 97.8125,65.6873 117.646,52.0207 137.5,38.5 Z"/></g>
<g><path style="opacity:0.983" fill="#a6683b" d="M 435.5,189.5 C 428.182,175.53 419.849,162.197 410.5,149.5C 409.89,130.399 406.724,111.733 401,93.5C 398.329,85.5824 393.163,83.4157 385.5,87C 375.773,92.1896 366.773,98.3563 358.5,105.5C 348.917,100.541 339.25,95.8743 329.5,91.5C 348.956,77.6024 369.623,65.4358 391.5,55C 398.306,51.673 405.473,49.5063 413,48.5C 418.843,49.3397 422.51,52.673 424,58.5C 437.708,101.332 441.541,144.999 435.5,189.5 Z"/></g>
<g><path style="opacity:0.923" fill="#a6673a" d="M 293.5,51.5 C 296.85,51.335 300.183,51.5017 303.5,52C 309.492,59.5423 307.658,64.3757 298,66.5C 288.888,63.6352 287.388,58.6352 293.5,51.5 Z"/></g>
<g><path style="opacity:0.899" fill="#a7673a" d="M 323.5,57.5 C 335.39,56.5188 338.39,61.0188 332.5,71C 327.962,73.3034 323.795,72.8034 320,69.5C 317.458,64.3612 318.624,60.3612 323.5,57.5 Z"/></g>
<g><path style="opacity:0.997" fill="#f7b279" d="M 329.5,91.5 C 339.25,95.8743 348.917,100.541 358.5,105.5C 377.912,117.568 395.245,132.234 410.5,149.5C 419.849,162.197 428.182,175.53 435.5,189.5C 449.387,218.691 451.553,248.691 442,279.5C 433.646,298.247 421.48,313.914 405.5,326.5C 401.492,324.163 397.492,321.83 393.5,319.5C 401.404,317.46 408.238,313.46 414,307.5C 420.173,297.006 417.34,290.173 405.5,287C 389.899,284.391 377.733,289.557 369,302.5C 367.711,307.965 369.211,312.465 373.5,316C 378.239,317.051 382.906,317.885 387.5,318.5C 369.043,316.144 355.543,323.144 347,339.5C 345.225,345.8 345.058,352.133 346.5,358.5C 326.901,366.033 306.901,372.366 286.5,377.5C 284.696,372.358 281.696,368.025 277.5,364.5C 257.7,354.073 240.533,357.407 226,374.5C 223.838,378.481 222.005,382.481 220.5,386.5C 152.633,383.97 114.3,348.97 105.5,281.5C 105.6,265.397 105.6,249.397 105.5,233.5C 108.34,222.219 111.506,210.885 115,199.5C 118.236,190.699 121.736,182.032 125.5,173.5C 130.913,164.339 136.58,155.339 142.5,146.5C 183.307,94.2848 236.64,73.4514 302.5,84C 311.726,85.7991 320.726,88.2991 329.5,91.5 Z"/></g>
<g><path style="opacity:1" fill="#fdcdd0" d="M 410.5,149.5 C 395.245,132.234 377.912,117.568 358.5,105.5C 366.773,98.3563 375.773,92.1896 385.5,87C 393.163,83.4157 398.329,85.5824 401,93.5C 406.724,111.733 409.89,130.399 410.5,149.5 Z"/></g>
<g><path style="opacity:1" fill="#a7693b" d="M 275.5,97.5 C 278.588,97.3773 281.255,98.3773 283.5,100.5C 290.925,108.01 294.425,117.01 294,127.5C 291.103,132.155 286.937,133.655 281.5,132C 271.398,127.296 267.565,119.462 270,108.5C 271.319,104.528 273.153,100.861 275.5,97.5 Z"/></g>
<g><path style="opacity:1" fill="#a6683b" d="M 225.5,100.5 C 230.984,99.8256 235.984,100.992 240.5,104C 262.382,124.111 268.215,147.945 258,175.5C 253.907,181.753 248.407,183.587 241.5,181C 234.714,175.601 229.214,169.101 225,161.5C 219.814,151.276 215.814,140.61 213,129.5C 211.787,121.807 213.454,114.807 218,108.5C 220.705,105.964 223.205,103.297 225.5,100.5 Z"/></g>
<g><path style="opacity:1" fill="#a7693c" d="M 187.5,123.5 C 200.155,126.453 205.655,134.453 204,147.5C 202.747,152.505 200.58,157.005 197.5,161C 195.5,161.667 193.5,161.667 191.5,161C 183.175,153.687 179.342,144.52 180,133.5C 181.947,129.724 184.447,126.39 187.5,123.5 Z"/></g>
<g><path style="opacity:0.981" fill="#a6683b" d="M 142.5,146.5 C 136.58,155.339 130.913,164.339 125.5,173.5C 115.161,173.334 104.828,173.5 94.5,174C 91.4522,174.606 88.9522,176.106 87,178.5C 86.5042,183.208 86.8376,187.875 88,192.5C 92.7762,206.676 98.6095,220.342 105.5,233.5C 105.6,249.397 105.6,265.397 105.5,281.5C 90.1637,263.285 77.3303,243.285 67,221.5C 60.5022,207.503 54.8356,193.17 50,178.5C 48.4559,173.243 47.7892,167.91 48,162.5C 48.3459,160.152 49.5125,158.319 51.5,157C 65.9242,151.317 80.9242,148.317 96.5,148C 111.817,146.97 127.151,146.47 142.5,146.5 Z"/></g>
<g><path style="opacity:1" fill="#feced1" d="M 125.5,173.5 C 121.736,182.032 118.236,190.699 115,199.5C 111.506,210.885 108.34,222.219 105.5,233.5C 98.6095,220.342 92.7762,206.676 88,192.5C 86.8376,187.875 86.5042,183.208 87,178.5C 88.9522,176.106 91.4522,174.606 94.5,174C 104.828,173.5 115.161,173.334 125.5,173.5 Z"/></g>
<g><path style="opacity:1" fill="#a96b3d" d="M 382.5,244.5 C 388.067,243.753 389.9,246.087 388,251.5C 374.808,274.513 355.974,280.679 331.5,270C 327.818,268.68 326.318,266.18 327,262.5C 327.804,261.196 328.971,260.529 330.5,260.5C 353.546,273.037 370.879,267.704 382.5,244.5 Z"/></g>
<g><path style="opacity:1" fill="#feced1" d="M 393.5,319.5 C 391.435,319.483 389.435,319.15 387.5,318.5C 382.906,317.885 378.239,317.051 373.5,316C 369.211,312.465 367.711,307.965 369,302.5C 377.733,289.557 389.899,284.391 405.5,287C 417.34,290.173 420.173,297.006 414,307.5C 408.238,313.46 401.404,317.46 393.5,319.5 Z"/></g>
<g><path style="opacity:1" fill="#a8693c" d="M 223.5,292.5 C 228.675,291.507 230.509,293.507 229,298.5C 216.595,321.859 198.095,328.359 173.5,318C 171.667,316.833 169.833,315.667 168,314.5C 166.859,311.143 168.025,309.143 171.5,308.5C 194.483,320.613 211.817,315.279 223.5,292.5 Z"/></g>
<g><path style="opacity:1" fill="#a86a3c" d="M 289.5,300.5 C 293.839,299.846 297.673,300.846 301,303.5C 301.379,308.823 298.879,312.323 293.5,314C 289.171,315.151 285.338,314.318 282,311.5C 281.333,309.833 281.333,308.167 282,306.5C 284.114,303.879 286.614,301.879 289.5,300.5 Z"/></g>
<g><path style="opacity:0.993" fill="#a6683b" d="M 387.5,318.5 C 389.435,319.15 391.435,319.483 393.5,319.5C 397.492,321.83 401.492,324.163 405.5,326.5C 416.551,343.254 414.217,357.921 398.5,370.5C 393.684,372.608 388.684,374.441 383.5,376C 366.984,378.74 354.651,372.907 346.5,358.5C 345.058,352.133 345.225,345.8 347,339.5C 355.543,323.144 369.043,316.144 387.5,318.5 Z"/></g>
<g><path style="opacity:1" fill="#feced2" d="M 277.5,364.5 C 271.857,358.998 270.023,352.332 272,344.5C 277.181,332.138 286.348,324.305 299.5,321C 313.274,318.477 324.441,322.643 333,333.5C 336.454,339.785 336.287,345.952 332.5,352C 330.043,353.562 327.376,354.562 324.5,355C 320.106,355.303 315.773,355.97 311.5,357C 304.377,359.483 297.377,362.15 290.5,365C 286.113,365.706 281.78,365.54 277.5,364.5 Z"/></g>
<g><path style="opacity:1" fill="#feced1" d="M 191.5,339.5 C 198.821,338.859 205.821,340.025 212.5,343C 217.992,347.794 218.826,353.294 215,359.5C 204.303,371.619 191.136,375.453 175.5,371C 168.208,366.324 166.708,360.158 171,352.5C 176.708,346.238 183.542,341.905 191.5,339.5 Z"/></g>
<g><path style="opacity:0.992" fill="#a6683b" d="M 277.5,364.5 C 281.696,368.025 284.696,372.358 286.5,377.5C 289.588,391.498 285.255,402.665 273.5,411C 268.853,413.494 264.186,415.661 259.5,417.5C 242.54,420.579 230.04,414.579 222,399.5C 220.805,395.249 220.305,390.915 220.5,386.5C 222.005,382.481 223.838,378.481 226,374.5C 240.533,357.407 257.7,354.073 277.5,364.5 Z"/></g>
<g><path style="opacity:0.993" fill="#f0a667" d="M 346.5,358.5 C 354.651,372.907 366.984,378.74 383.5,376C 388.684,374.441 393.684,372.608 398.5,370.5C 405.809,380.433 412.643,390.766 419,401.5C 435.705,429.578 428.205,447.078 396.5,454C 386.524,455.737 376.524,455.903 366.5,454.5C 358.005,454.498 350.339,456.998 343.5,462C 335.123,469.379 326.456,476.379 317.5,483C 307.286,489.015 296.62,490.015 285.5,486C 279.447,481.446 275.113,475.613 272.5,468.5C 270.003,460.341 267.336,452.341 264.5,444.5C 262.51,435.558 260.843,426.558 259.5,417.5C 264.186,415.661 268.853,413.494 273.5,411C 285.255,402.665 289.588,391.498 286.5,377.5C 306.901,372.366 326.901,366.033 346.5,358.5 Z"/></g>
<g><path style="opacity:0.967" fill="#a6683b" d="M 264.5,444.5 C 267.336,452.341 270.003,460.341 272.5,468.5C 261.766,472.993 251.433,472.16 241.5,466C 227.5,454 213.5,442 199.5,430C 194.042,425.689 187.876,422.855 181,421.5C 171.276,423.207 166.943,428.874 168,438.5C 170.565,444.567 175.065,448.233 181.5,449.5C 186.287,447.689 191.121,446.022 196,444.5C 205.41,446.299 209.077,451.965 207,461.5C 204.08,466.22 199.913,469.387 194.5,471C 171.141,476.57 154.641,468.403 145,446.5C 139.703,424.693 147.203,409.193 167.5,400C 181.651,396.135 194.984,398.135 207.5,406C 223.38,417.54 238.38,430.206 252.5,444C 254.443,445.555 256.61,446.722 259,447.5C 261.085,446.876 262.918,445.876 264.5,444.5 Z"/></g>
</svg>
