<?xml version="1.0" encoding="UTF-8"?>
<!DOCTYPE svg PUBLIC "-//W3C//DTD SVG 1.1//EN" "http://www.w3.org/Graphics/SVG/1.1/DTD/svg11.dtd">
<svg xmlns="http://www.w3.org/2000/svg" version="1.1" width="512px" height="512px" style="shape-rendering:geometricPrecision; text-rendering:geometricPrecision; image-rendering:optimizeQuality; fill-rule:evenodd; clip-rule:evenodd" xmlns:xlink="http://www.w3.org/1999/xlink">
<g><path style="opacity:0.996" fill="#c1c8c8" d="M 315.5,43.5 C 307.019,65.7475 300.853,88.7475 297,112.5C 292.024,142.634 289.858,172.967 290.5,203.5C 277.463,222.357 276.129,242.024 286.5,262.5C 279.548,262.935 275.048,266.601 273,273.5C 272.333,275.833 272.333,278.167 273,280.5C 275.333,281.833 277.667,283.167 280,284.5C 279.562,287.06 279.729,289.56 280.5,292C 283.884,293.96 287.55,294.793 291.5,294.5C 298.652,293.55 305.652,292.216 312.5,290.5C 319.896,291.03 326.562,293.53 332.5,298C 338.296,298.791 343.962,298.291 349.5,296.5C 348.13,305.018 351.464,311.184 359.5,315C 374.413,320.973 388.246,319.14 401,309.5C 406.383,301.632 405.216,294.799 397.5,289C 394.259,287.211 390.926,285.711 387.5,284.5C 385.35,282.177 383.35,279.677 381.5,277C 381.905,276.055 382.572,275.388 383.5,275C 391.761,275.99 395.261,272.49 394,264.5C 390.265,260.904 385.765,259.571 380.5,260.5C 382.578,256.579 384.245,252.579 385.5,248.5C 406.814,240.343 427.147,230.343 446.5,218.5C 450.455,281.482 423.121,323.982 364.5,346C 354.068,349.774 343.402,352.608 332.5,354.5C 331.833,354.5 331.167,354.5 330.5,354.5C 332.208,333.352 322.875,319.519 302.5,313C 289.778,309.444 278.111,311.444 267.5,319C 258.534,326.898 255.368,336.731 258,348.5C 259.653,353.139 261.819,357.472 264.5,361.5C 257.646,361.824 250.979,361.491 244.5,360.5C 252.186,348.244 252.353,335.911 245,323.5C 233.672,312.064 220.172,308.564 204.5,313C 184.461,320.26 175.461,334.427 177.5,355.5C 149.141,350.316 123.474,339.149 100.5,322C 75.9887,300.472 63.1553,273.306 62,240.5C 61.2365,233.118 61.4032,225.784 62.5,218.5C 82.1663,231.174 103.166,241.174 125.5,248.5C 126.63,252.558 127.964,256.558 129.5,260.5C 124.821,260.334 120.155,260.501 115.5,261C 108.486,270.028 110.819,274.694 122.5,275C 123.428,275.388 124.095,276.055 124.5,277C 122.863,278.828 121.197,280.661 119.5,282.5C 119.5,283.167 119.167,283.5 118.5,283.5C 110.203,285.628 105.203,290.795 103.5,299C 103.672,304.191 106.005,308.191 110.5,311C 124.116,318.214 137.783,318.214 151.5,311C 156.632,307.902 158.965,303.402 158.5,297.5C 163.448,298.559 168.448,298.726 173.5,298C 183.651,289.706 194.651,288.373 206.5,294C 213.036,295.011 219.369,294.344 225.5,292C 226.271,289.56 226.438,287.06 226,284.5C 228.087,283.206 230.254,282.039 232.5,281C 233.973,274.248 231.973,268.581 226.5,264C 225.552,263.517 224.552,263.351 223.5,263.5C 223.5,263.167 223.5,262.833 223.5,262.5C 225.993,258.542 227.827,254.209 229,249.5C 231.55,237.938 230.883,226.605 227,215.5C 224.407,210.639 221.573,205.972 218.5,201.5C 219.464,147.289 211.131,94.6219 193.5,43.5C 234.125,27.6953 274.791,27.6953 315.5,43.5 Z"/></g>
<g><path style="opacity:1" fill="#8e9597" d="M 193.5,43.5 C 211.131,94.6219 219.464,147.289 218.5,201.5C 198.595,181.486 175.929,177.653 150.5,190C 129.126,203.915 120.793,223.415 125.5,248.5C 103.166,241.174 82.1663,231.174 62.5,218.5C 62.4763,212.546 63.1429,206.712 64.5,201C 58.9614,190.721 54.7947,179.888 52,168.5C 43.8101,138.361 38.9767,107.694 37.5,76.5C 37.6133,68.9672 38.7799,61.6339 41,54.5C 43.4477,51.5265 46.6144,50.0265 50.5,50C 67.4122,49.7488 84.0788,51.7488 100.5,56C 115.65,59.6615 130.65,63.8282 145.5,68.5C 153.701,63.1353 162.034,57.9686 170.5,53C 177.97,49.262 185.637,46.0953 193.5,43.5 Z"/></g>
<g><path style="opacity:0.997" fill="#8e9597" d="M 315.5,43.5 C 333.049,49.6899 349.216,58.3565 364,69.5C 388.656,61.3778 413.823,55.2111 439.5,51C 448.848,49.1314 458.181,49.1314 467.5,51C 471.521,52.8679 473.687,56.0346 474,60.5C 475.681,104.75 469.014,147.75 454,189.5C 451.606,195.287 448.94,200.954 446,206.5C 445.83,210.493 445.996,214.493 446.5,218.5C 427.147,230.343 406.814,240.343 385.5,248.5C 389.486,213 374.153,191.167 339.5,183C 319.625,181.61 303.292,188.444 290.5,203.5C 289.858,172.967 292.024,142.634 297,112.5C 300.853,88.7475 307.019,65.7475 315.5,43.5 Z"/></g>
<g><path style="opacity:1" fill="#fdced2" d="M 79.5,82.5 C 93.4453,83.3196 106.779,86.653 119.5,92.5C 103.401,109.778 90.2343,129.112 80,150.5C 76.6652,134.656 74.4985,118.656 73.5,102.5C 73.5025,97.4442 74.0025,92.4442 75,87.5C 76.025,85.313 77.525,83.6464 79.5,82.5 Z"/></g>
<g><path style="opacity:1" fill="#fdced2" d="M 422.5,82.5 C 432.717,80.2337 438.217,84.2337 439,94.5C 438.95,115.516 436.283,136.183 431,156.5C 420.666,133.522 407.166,112.689 390.5,94C 390.905,93.0546 391.572,92.3879 392.5,92C 402.526,88.4892 412.526,85.3226 422.5,82.5 Z"/></g>
<g><path style="opacity:1" fill="#fdfdfd" d="M 355.5,151.5 C 372.014,150.502 384.181,157.169 392,171.5C 393.636,177.73 391.469,181.897 385.5,184C 368.759,186.046 356.592,179.546 349,164.5C 348.333,162.167 348.333,159.833 349,157.5C 351.063,155.266 353.229,153.266 355.5,151.5 Z"/></g>
<g><path style="opacity:1" fill="#fdfdfd" d="M 136.5,151.5 C 143.251,150.295 149.085,151.962 154,156.5C 156.168,161.5 155.502,166.167 152,170.5C 142.412,182.473 130.246,186.64 115.5,183C 110.784,178.308 110.284,173.141 114,167.5C 119.891,159.813 127.391,154.48 136.5,151.5 Z"/></g>
<g><path style="opacity:1" fill="#242021" d="M 218.5,201.5 C 221.573,205.972 224.407,210.639 227,215.5C 230.883,226.605 231.55,237.938 229,249.5C 227.827,254.209 225.993,258.542 223.5,262.5C 215.321,261.895 207.654,263.562 200.5,267.5C 211.652,254.04 210.985,241.207 198.5,229C 179.397,219.473 166.231,224.64 159,244.5C 158.445,263.444 167.612,273.111 186.5,273.5C 182.469,275.439 178.136,275.939 173.5,275C 166.959,270.902 160.626,266.569 154.5,262C 152.167,261.333 149.833,261.333 147.5,262C 142.178,264.775 136.845,264.942 131.5,262.5C 131.167,261.5 130.5,260.833 129.5,260.5C 127.964,256.558 126.63,252.558 125.5,248.5C 120.793,223.415 129.126,203.915 150.5,190C 175.929,177.653 198.595,181.486 218.5,201.5 Z"/></g>
<g><path style="opacity:1" fill="#242021" d="M 385.5,248.5 C 384.245,252.579 382.578,256.579 380.5,260.5C 375.707,261.643 370.874,262.643 366,263.5C 359.961,262.33 354.127,261.663 348.5,261.5C 355.424,245.87 351.424,234.036 336.5,226C 320.347,221.493 309.181,226.993 303,242.5C 300.943,257.222 306.777,267.389 320.5,273C 327.124,274.089 333.458,273.255 339.5,270.5C 334.394,275.06 328.394,276.56 321.5,275C 312.167,271 302.833,267 293.5,263C 291.19,262.503 288.857,262.337 286.5,262.5C 276.129,242.024 277.463,222.357 290.5,203.5C 303.292,188.444 319.625,181.61 339.5,183C 374.153,191.167 389.486,213 385.5,248.5 Z"/></g>
<g><path style="opacity:1" fill="#f8f8f8" d="M 187.5,196.5 C 198.984,196.805 203.151,202.472 200,213.5C 195.752,218.596 190.585,219.763 184.5,217C 177.072,208.824 178.072,201.991 187.5,196.5 Z"/></g>
<g><path style="opacity:1" fill="#f8f8f8" d="M 317.5,196.5 C 326.982,196.48 331.482,201.147 331,210.5C 328.065,217.378 322.898,219.878 315.5,218C 310.184,214.528 308.351,209.695 310,203.5C 311.742,200.254 314.242,197.921 317.5,196.5 Z"/></g>
<g><path style="opacity:1" fill="#f6f5f5" d="M 147.5,221.5 C 156.153,220.987 159.653,224.987 158,233.5C 152.67,240.311 147.67,239.977 143,232.5C 142.333,230.5 142.333,228.5 143,226.5C 144.707,224.963 146.207,223.296 147.5,221.5 Z"/></g>
<g><path style="opacity:1" fill="#f2f2f2" d="M 357.5,221.5 C 366.365,221.847 369.532,226.181 367,234.5C 361.186,240.205 356.186,239.538 352,232.5C 351.176,227.482 353.009,223.815 357.5,221.5 Z"/></g>
<g><path style="opacity:1" fill="#fcfcfc" d="M 200.5,267.5 C 196.003,270.087 191.336,272.087 186.5,273.5C 167.612,273.111 158.445,263.444 159,244.5C 166.231,224.64 179.397,219.473 198.5,229C 210.985,241.207 211.652,254.04 200.5,267.5 Z"/></g>
<g><path style="opacity:1" fill="#fcfcfc" d="M 348.5,261.5 C 345.833,264.833 342.833,267.833 339.5,270.5C 333.458,273.255 327.124,274.089 320.5,273C 306.777,267.389 300.943,257.222 303,242.5C 309.181,226.993 320.347,221.493 336.5,226C 351.424,234.036 355.424,245.87 348.5,261.5 Z"/></g>
<g><path style="opacity:1" fill="#ebeded" d="M 129.5,260.5 C 130.5,260.833 131.167,261.5 131.5,262.5C 141.128,279.745 155.961,288.745 176,289.5C 196.755,289.544 212.588,280.878 223.5,263.5C 224.552,263.351 225.552,263.517 226.5,264C 231.973,268.581 233.973,274.248 232.5,281C 230.254,282.039 228.087,283.206 226,284.5C 226.438,287.06 226.271,289.56 225.5,292C 219.369,294.344 213.036,295.011 206.5,294C 194.651,288.373 183.651,289.706 173.5,298C 168.448,298.726 163.448,298.559 158.5,297.5C 158.5,297.167 158.5,296.833 158.5,296.5C 156.012,290.513 151.678,286.347 145.5,284C 136.941,281.431 128.275,280.931 119.5,282.5C 121.197,280.661 122.863,278.828 124.5,277C 124.095,276.055 123.428,275.388 122.5,275C 110.819,274.694 108.486,270.028 115.5,261C 120.155,260.501 124.821,260.334 129.5,260.5 Z"/></g>
<g><path style="opacity:1" fill="#bbbabb" d="M 380.5,260.5 C 367.003,284.189 346.669,293.355 319.5,288C 305.094,283.809 294.094,275.309 286.5,262.5C 288.857,262.337 291.19,262.503 293.5,263C 302.833,267 312.167,271 321.5,275C 328.394,276.56 334.394,275.06 339.5,270.5C 342.833,267.833 345.833,264.833 348.5,261.5C 354.127,261.663 359.961,262.33 366,263.5C 370.874,262.643 375.707,261.643 380.5,260.5 Z"/></g>
<g><path style="opacity:1" fill="#edeeee" d="M 380.5,260.5 C 385.765,259.571 390.265,260.904 394,264.5C 395.261,272.49 391.761,275.99 383.5,275C 382.572,275.388 381.905,276.055 381.5,277C 383.35,279.677 385.35,282.177 387.5,284.5C 385.74,290.55 381.74,292.717 375.5,291C 372.253,289.541 368.92,288.374 365.5,287.5C 364.5,287.667 363.5,287.833 362.5,288C 358.443,291.355 354.11,294.188 349.5,296.5C 343.962,298.291 338.296,298.791 332.5,298C 326.562,293.53 319.896,291.03 312.5,290.5C 305.652,292.216 298.652,293.55 291.5,294.5C 287.55,294.793 283.884,293.96 280.5,292C 279.729,289.56 279.562,287.06 280,284.5C 277.667,283.167 275.333,281.833 273,280.5C 272.333,278.167 272.333,275.833 273,273.5C 275.048,266.601 279.548,262.935 286.5,262.5C 294.094,275.309 305.094,283.809 319.5,288C 346.669,293.355 367.003,284.189 380.5,260.5 Z"/></g>
<g><path style="opacity:1" fill="#bcbbbc" d="M 186.5,273.5 C 191.336,272.087 196.003,270.087 200.5,267.5C 207.654,263.562 215.321,261.895 223.5,262.5C 223.5,262.833 223.5,263.167 223.5,263.5C 212.588,280.878 196.755,289.544 176,289.5C 155.961,288.745 141.128,279.745 131.5,262.5C 136.845,264.942 142.178,264.775 147.5,262C 149.833,261.333 152.167,261.333 154.5,262C 160.626,266.569 166.959,270.902 173.5,275C 178.136,275.939 182.469,275.439 186.5,273.5 Z"/></g>
<g><path style="opacity:1" fill="#fef0f1" d="M 158.5,296.5 C 152.139,293.903 145.972,290.903 140,287.5C 136.513,288.662 133.013,289.829 129.5,291C 122.952,292.608 119.285,290.108 118.5,283.5C 119.167,283.5 119.5,283.167 119.5,282.5C 128.275,280.931 136.941,281.431 145.5,284C 151.678,286.347 156.012,290.513 158.5,296.5 Z"/></g>
<g><path style="opacity:1" fill="#fcced2" d="M 250.5,280.5 C 254.582,280.344 258.582,280.844 262.5,282C 268.626,288.314 267.293,292.647 258.5,295C 252.268,296.627 247.435,294.794 244,289.5C 243.333,288.167 243.333,286.833 244,285.5C 245.965,283.45 248.132,281.783 250.5,280.5 Z"/></g>
<g><path style="opacity:1" fill="#fecfd3" d="M 118.5,283.5 C 119.285,290.108 122.952,292.608 129.5,291C 133.013,289.829 136.513,288.662 140,287.5C 145.972,290.903 152.139,293.903 158.5,296.5C 158.5,296.833 158.5,297.167 158.5,297.5C 158.965,303.402 156.632,307.902 151.5,311C 137.783,318.214 124.116,318.214 110.5,311C 106.005,308.191 103.672,304.191 103.5,299C 105.203,290.795 110.203,285.628 118.5,283.5 Z"/></g>
<g><path style="opacity:1" fill="#fecfd3" d="M 387.5,284.5 C 390.926,285.711 394.259,287.211 397.5,289C 405.216,294.799 406.383,301.632 401,309.5C 388.246,319.14 374.413,320.973 359.5,315C 351.464,311.184 348.13,305.018 349.5,296.5C 354.11,294.188 358.443,291.355 362.5,288C 363.5,287.833 364.5,287.667 365.5,287.5C 368.92,288.374 372.253,289.541 375.5,291C 381.74,292.717 385.74,290.55 387.5,284.5 Z"/></g>
<g><path style="opacity:0.999" fill="#8e9597" d="M 244.5,360.5 C 231.61,375.294 215.61,380.128 196.5,375C 190.541,371.871 185.207,368.037 180.5,363.5C 179.5,360.833 178.5,358.167 177.5,355.5C 175.461,334.427 184.461,320.26 204.5,313C 220.172,308.564 233.672,312.064 245,323.5C 252.353,335.911 252.186,348.244 244.5,360.5 Z"/></g>
<g><path style="opacity:1" fill="#8e9597" d="M 330.5,354.5 C 323.656,371.435 310.989,378.935 292.5,377C 281.158,375.169 271.825,370.002 264.5,361.5C 261.819,357.472 259.653,353.139 258,348.5C 255.368,336.731 258.534,326.898 267.5,319C 278.111,311.444 289.778,309.444 302.5,313C 322.875,319.519 332.208,333.352 330.5,354.5 Z"/></g>
<g><path style="opacity:0.981" fill="#8e9597" d="M 347.5,400.5 C 344.701,391.08 341.701,381.58 338.5,372C 338.743,371.098 339.077,370.265 339.5,369.5C 355.225,350.425 374.892,344.592 398.5,352C 417.364,361.897 424.864,377.397 421,398.5C 411.626,426.939 392.459,437.105 363.5,429C 355.553,424.541 353.387,418.041 357,409.5C 358.663,407.083 360.829,405.25 363.5,404C 369.11,403.278 374.61,403.778 380,405.5C 389.569,404.228 394.736,398.728 395.5,389C 394.518,380.151 389.518,375.318 380.5,374.5C 373.308,376.43 366.974,379.93 361.5,385C 356.968,390.362 352.301,395.528 347.5,400.5 Z"/></g>
<g><path style="opacity:0.993" fill="#abb8b5" d="M 330.5,354.5 C 331.167,354.5 331.833,354.5 332.5,354.5C 334.104,360.031 336.437,365.031 339.5,369.5C 339.077,370.265 338.743,371.098 338.5,372C 341.701,381.58 344.701,391.08 347.5,400.5C 350.867,413.965 352.367,427.632 352,441.5C 350.735,450.865 345.902,457.698 337.5,462C 321.998,466.648 306.665,465.982 291.5,460C 284.247,456.805 276.914,453.805 269.5,451C 262.776,450.226 256.11,450.559 249.5,452C 238.5,455.667 227.5,459.333 216.5,463C 202.291,467.154 189.791,464.32 179,454.5C 175.622,449.32 173.622,443.653 173,437.5C 172.333,427.5 172.333,417.5 173,407.5C 174.962,392.729 177.462,378.062 180.5,363.5C 185.207,368.037 190.541,371.871 196.5,375C 215.61,380.128 231.61,375.294 244.5,360.5C 250.979,361.491 257.646,361.824 264.5,361.5C 271.825,370.002 281.158,375.169 292.5,377C 310.989,378.935 323.656,371.435 330.5,354.5 Z"/></g>
</svg>
