<?xml version="1.0" encoding="UTF-8"?>
<!DOCTYPE svg PUBLIC "-//W3C//DTD SVG 1.1//EN" "http://www.w3.org/Graphics/SVG/1.1/DTD/svg11.dtd">
<svg xmlns="http://www.w3.org/2000/svg" version="1.1" width="512px" height="512px" style="shape-rendering:geometricPrecision; text-rendering:geometricPrecision; image-rendering:optimizeQuality; fill-rule:evenodd; clip-rule:evenodd" xmlns:xlink="http://www.w3.org/1999/xlink">
<g><path style="opacity:0.995" fill="#806667" d="M 349.5,332.5 C 348.178,332.33 347.011,332.663 346,333.5C 347.573,310.082 337.407,294.249 315.5,286C 296.742,281.463 283.576,287.963 276,305.5C 273.436,319.762 277.27,331.929 287.5,342C 273.516,343.625 259.516,343.791 245.5,342.5C 259.481,325.944 258.814,310.111 243.5,295C 217.895,284.04 198.395,290.873 185,315.5C 181.953,323.15 181.786,330.817 184.5,338.5C 153.842,333.9 126.176,322.4 101.5,304C 74.8249,279.515 61.8249,249.015 62.5,212.5C 62.981,202.756 63.981,193.089 65.5,183.5C 53.4592,155.673 45.6259,126.673 42,96.5C 39.4036,78.8507 38.7369,61.184 40,43.5C 40.3581,39.7429 41.8581,36.5762 44.5,34C 49.1564,32.156 53.9897,31.3226 59,31.5C 89.1906,34.5891 118.691,40.9224 147.5,50.5C 199.385,12.9712 255.718,4.47116 316.5,25C 333.884,31.521 349.884,40.3543 364.5,51.5C 389.368,43.4498 414.701,37.2832 440.5,33C 450.639,30.7467 460.639,31.08 470.5,34C 472.049,35.214 473.215,36.714 474,38.5C 477.328,85.2069 470.662,130.54 454,174.5C 452.194,179.446 449.861,184.112 447,188.5C 455.322,264.603 422.822,312.603 349.5,332.5 Z"/></g>
<g><path style="opacity:1" fill="#fdcdd1" d="M 80.5,64.5 C 94.4566,65.3225 107.79,68.6558 120.5,74.5C 104.613,91.927 91.4466,111.26 81,132.5C 76.3543,112.084 74.6876,91.4178 76,70.5C 76.9793,68.0324 78.4793,66.0324 80.5,64.5 Z"/></g>
<g><path style="opacity:1" fill="#fccdd1" d="M 423.5,64.5 C 427.936,64.2101 432.27,64.7101 436.5,66C 438.604,68.0424 439.771,70.5424 440,73.5C 440.839,95.9476 438.173,117.948 432,139.5C 422.035,115.718 408.202,94.5515 390.5,76C 401.264,71.2463 412.264,67.413 423.5,64.5 Z"/></g>
<g><path style="opacity:1" fill="#fdfcfc" d="M 153.5,153.5 C 171.677,150.694 187.177,155.694 200,168.5C 209.946,181.967 206.779,190.301 190.5,193.5C 185.772,191.975 181.105,190.141 176.5,188C 169.196,186.797 161.863,186.463 154.5,187C 145.167,191 135.833,195 126.5,199C 113.672,200.165 108.506,194.332 111,181.5C 121.326,166.341 135.493,157.007 153.5,153.5 Z"/></g>
<g><path style="opacity:1" fill="#fdfcfc" d="M 344.5,153.5 C 357.478,152.328 369.811,154.494 381.5,160C 387.765,164.263 392.598,169.763 396,176.5C 398.067,182.987 396.234,187.82 390.5,191C 387.581,192.14 384.581,192.973 381.5,193.5C 376.772,191.975 372.105,190.141 367.5,188C 360.196,186.797 352.863,186.463 345.5,187C 336.141,191.049 326.807,195.049 317.5,199C 305.17,200.335 300.003,194.835 302,182.5C 306.451,174.382 312.617,167.882 320.5,163C 328.186,158.722 336.186,155.556 344.5,153.5 Z"/></g>
<g><path style="opacity:1" fill="#0d0d0d" d="M 123.5,169.5 C 128.333,169.241 131.333,171.408 132.5,176C 130.435,182.118 126.601,183.618 121,180.5C 118.6,175.99 119.433,172.323 123.5,169.5 Z"/></g>
<g><path style="opacity:1" fill="#0e0e0e" d="M 314.5,169.5 C 324.155,170.651 325.822,174.818 319.5,182C 312.667,183.167 309.833,180.333 311,173.5C 311.69,171.65 312.856,170.316 314.5,169.5 Z"/></g>
<g><path style="opacity:1" fill="#fbccd0" d="M 250.5,212.5 C 255.267,212.191 259.934,212.691 264.5,214C 269.153,219.413 268.153,223.413 261.5,226C 257.044,226.867 252.711,226.534 248.5,225C 246.552,223.561 245.219,221.728 244.5,219.5C 245.802,216.534 247.802,214.201 250.5,212.5 Z"/></g>
<g><path style="opacity:1" fill="#fccdd1" d="M 105.5,227.5 C 112.508,227.334 119.508,227.5 126.5,228C 134.67,229.507 140.503,234.007 144,241.5C 144.628,248.08 142.128,253.247 136.5,257C 123.149,264.331 109.816,264.331 96.5,257C 85.9206,248.631 85.9206,240.298 96.5,232C 99.5919,230.454 102.592,228.954 105.5,227.5 Z"/></g>
<g><path style="opacity:1" fill="#fdced2" d="M 388.5,227.5 C 399.772,226.148 410.438,227.982 420.5,233C 428.44,240.593 428.44,248.259 420.5,256C 410.484,261.295 399.818,262.962 388.5,261C 381.03,259.357 375.53,255.19 372,248.5C 370.126,241.989 371.959,236.822 377.5,233C 381.259,231.121 384.925,229.287 388.5,227.5 Z"/></g>
<g><path style="opacity:1" fill="#fdfcfc" d="M 301.5,230.5 C 313.66,230.456 318.493,236.456 316,248.5C 310.834,262.331 302.001,273.165 289.5,281C 277.785,288.201 265.119,291.201 251.5,290C 240.267,287.98 231.767,282.147 226,272.5C 226.454,262.875 231.62,257.542 241.5,256.5C 262.546,259.762 279.546,252.929 292.5,236C 295.564,234.141 298.564,232.308 301.5,230.5 Z"/></g>
<g><path style="opacity:0.996" fill="#634f54" d="M 349.5,332.5 C 363.052,347.264 374.386,363.597 383.5,381.5C 388.537,392.236 393.537,402.902 398.5,413.5C 400.464,420.025 401.797,426.692 402.5,433.5C 402.037,445.932 396.037,454.432 384.5,459C 366.536,463.567 348.536,463.567 330.5,459C 320.158,457.668 310.491,459.668 301.5,465C 291.831,471.503 281.831,477.503 271.5,483C 248.253,492.122 232.753,484.956 225,461.5C 220.329,441.786 218.163,421.786 218.5,401.5C 218.782,386.81 219.449,372.143 220.5,357.5C 208.298,359.265 197.798,355.932 189,347.5C 186.962,344.757 185.462,341.757 184.5,338.5C 181.786,330.817 181.953,323.15 185,315.5C 198.395,290.873 217.895,284.04 243.5,295C 258.814,310.111 259.481,325.944 245.5,342.5C 259.516,343.791 273.516,343.625 287.5,342C 277.27,331.929 273.436,319.762 276,305.5C 283.576,287.963 296.742,281.463 315.5,286C 337.407,294.249 347.573,310.082 346,333.5C 347.011,332.663 348.178,332.33 349.5,332.5 Z"/></g>
<g><path style="opacity:0.965" fill="#907d7c" d="M 50.5,301.5 C 55.635,300.426 59.4683,302.093 62,306.5C 68.6667,330.5 75.3333,354.5 82,378.5C 84.2163,387.61 80.7163,391.777 71.5,391C 69.9984,390.417 68.6651,389.584 67.5,388.5C 64.5379,380.321 62.0379,371.988 60,363.5C 59.4387,362.978 58.772,362.645 58,362.5C 55.0337,362.852 52.5337,364.019 50.5,366C 52.011,372.044 53.6777,378.044 55.5,384C 53.9761,391.185 49.6428,393.852 42.5,392C 39.3663,389.612 37.533,386.446 37,382.5C 32.296,366.055 27.796,349.555 23.5,333C 24.8328,326.334 28.8328,323.667 35.5,325C 37.6667,325.833 39.1667,327.333 40,329.5C 41.822,335.121 43.4886,340.788 45,346.5C 47.8365,347.265 50.6698,346.932 53.5,345.5C 53.8333,345 54.1667,344.5 54.5,344C 51.0299,332.786 48.0299,321.453 45.5,310C 45.5251,306.105 47.1917,303.272 50.5,301.5 Z"/></g>
<g><path style="opacity:0.916" fill="#7f6566" d="M 77.5,302.5 C 90.1496,302.792 93.9829,308.792 89,320.5C 81.4679,325.431 75.4679,324.098 71,316.5C 69.4619,309.891 71.6286,305.224 77.5,302.5 Z"/></g>
<g><path style="opacity:0.981" fill="#907d7c" d="M 398.5,413.5 C 393.537,402.902 388.537,392.236 383.5,381.5C 389.815,365.866 396.981,350.532 405,335.5C 418.438,313.464 437.604,305.964 462.5,313C 482.766,323.414 490.599,339.914 486,362.5C 479.668,382.493 466.001,393.16 445,394.5C 434.937,394.908 429.104,390.241 427.5,380.5C 428.2,374.575 431.2,370.408 436.5,368C 443.24,368.335 449.574,367.001 455.5,364C 462.457,355.276 462.123,346.943 454.5,339C 445.083,335.023 437.25,337.19 431,345.5C 428.752,348.328 426.752,351.328 425,354.5C 416.249,374.272 407.416,393.939 398.5,413.5 Z"/></g>
<g><path style="opacity:0.967" fill="#907d7c" d="M 84.5,331.5 C 87.9391,331.589 90.7724,332.922 93,335.5C 96.9464,346.952 100.113,358.619 102.5,370.5C 102.19,377.642 98.5228,380.475 91.5,379C 89.714,378.215 88.214,377.049 87,375.5C 83.0536,364.048 79.887,352.381 77.5,340.5C 77.2832,335.395 79.6166,332.395 84.5,331.5 Z"/></g>
<g><path style="opacity:0.972" fill="#907d7c" d="M 141.5,365.5 C 146.223,364.553 150.056,365.886 153,369.5C 152.766,396.517 151.766,423.517 150,450.5C 147.738,457.256 143.238,459.423 136.5,457C 134.03,454.934 132.696,452.267 132.5,449C 133.117,441.141 133.784,433.308 134.5,425.5C 131.232,424.513 127.898,424.18 124.5,424.5C 124.037,431.907 123.203,439.24 122,446.5C 117.62,451.343 112.954,451.677 108,447.5C 106.896,443.28 106.396,438.947 106.5,434.5C 107.2,418.493 108.034,402.493 109,386.5C 113.394,379.302 118.727,378.635 125,384.5C 125.5,392.159 125.666,399.826 125.5,407.5C 128.777,407.784 131.943,407.451 135,406.5C 135.5,394.824 136.167,383.157 137,371.5C 137.599,368.746 139.099,366.746 141.5,365.5 Z"/></g>
<g><path style="opacity:0.927" fill="#7f6566" d="M 166.5,374.5 C 178.17,374.668 182.336,380.335 179,391.5C 175.257,395.259 170.757,396.426 165.5,395C 159.975,392.081 158.142,387.581 160,381.5C 161.425,378.394 163.592,376.06 166.5,374.5 Z"/></g>
<g><path style="opacity:0.965" fill="#907d7c" d="M 161.5,404.5 C 170.728,402.897 175.061,406.731 174.5,416C 173.949,426.86 173.115,437.693 172,448.5C 167.357,453.453 162.357,453.787 157,449.5C 155.964,447.13 155.464,444.63 155.5,442C 156.084,430.812 156.918,419.645 158,408.5C 159.376,407.295 160.542,405.962 161.5,404.5 Z"/></g>
</svg>
